<svg width="47" height="35" viewBox="0 0 47 35" fill="none" xmlns="http://www.w3.org/2000/svg">
<path d="M23.4637 30.0518C23.4637 30.0518 21.5247 32.1318 20.9214 34.7751L23.4637 30.0518Z" fill="white"/>
<path d="M23.7007 30.1384C23.7007 30.1384 25.6397 32.2184 26.243 34.8618L23.7007 30.1384Z" fill="white"/>
<path d="M46.1724 5.2L23.5069 0L0.841417 5.2C0.130427 5.37333 0.195063 7.30167 0.819872 7.475L8.87775 9.295L8.8993 15.3833C8.8993 15.7083 9.00702 16.0333 9.22248 16.2933C9.43793 16.575 9.67492 16.8133 9.89038 17.03C12.5835 19.63 20.7707 19.37 20.7707 19.37H23.5284H26.2647C26.2647 19.37 34.4518 19.63 37.145 17.03C37.3604 16.8133 37.5974 16.575 37.8129 16.2933C38.0283 16.0333 38.1145 15.7083 38.1361 15.3833L38.1576 9.295L42.0357 8.42833V16.8567C41.1093 17.225 40.4198 18.4817 40.4198 19.9983V21.6883L23.7439 23.595L4.09473 21.3417C3.75001 21.2983 3.40529 21.4933 3.25447 21.7967C2.75893 22.75 2.11258 24.4183 2.11258 26.5417C2.13413 28.6433 2.78048 30.2683 3.27602 31.2C3.42683 31.4817 3.72847 31.655 4.05164 31.6117L23.7439 30.1383L43.4362 31.6117C43.7593 31.6333 44.061 31.4817 44.2118 31.2C44.7073 30.2683 45.3537 28.6433 45.3752 26.5417C45.3752 25.1117 45.0951 23.8767 44.7504 22.945V19.9767C44.7504 18.395 43.9963 17.0733 42.9837 16.7917V8.19L46.2155 7.45333C46.7972 7.30167 46.8618 5.37333 46.1724 5.2Z" fill="#0F5A8B"/>
</svg>
