<svg width="68" height="107" viewBox="0 0 68 107" fill="none" xmlns="http://www.w3.org/2000/svg">
<g opacity="0.1" clip-path="url(#clip0_1_37591)">
<path d="M20.2321 47.5306C20.0426 47.4211 19.8555 47.2954 19.6772 47.1604C19.5822 47.0878 19.4877 47.0084 19.4 46.9293C18.8192 46.3913 18.3393 45.7695 17.9095 45.1766L17.7912 45.023C17.0268 44.0308 16.0746 42.7986 15.4831 41.27C15.4761 41.2517 15.4691 41.2335 15.4621 41.2152C14.8066 39.4328 15.175 37.7795 15.395 36.7905C15.4279 36.6424 15.4618 36.4985 15.4863 36.3527C15.5292 36.1144 15.595 35.8787 15.6793 35.6537C16.4647 33.5943 17.7225 31.6832 19.4197 29.9653C19.4564 29.9261 19.4958 29.8884 19.5335 29.8533C20.8783 28.6002 22.4031 27.874 23.6251 27.2893C23.9591 27.1303 24.2733 26.9811 24.5629 26.832C26.8177 25.4859 27.5701 24.6265 28.1172 22.7671C28.3331 21.8824 28.5026 20.9566 28.6783 19.9775L28.7571 19.5432C28.8165 19.0088 28.9246 18.0191 29.5558 16.9867C30.9206 14.7322 33.8775 13.9692 36.1623 15.2883C36.8046 15.6591 37.3554 16.1761 37.7661 16.79C38.9345 18.4562 39.0915 20.2814 39.1983 21.4946C39.2324 21.8733 39.261 22.231 39.3117 22.4593C39.3431 22.6055 39.3636 22.7523 39.3799 22.9004C39.798 27.2825 38.7279 31.3244 36.36 34.2829C36.3466 34.3 36.3332 34.3171 36.3214 34.3316C35.3683 35.4839 34.2626 36.2744 33.3733 36.9089C32.925 37.2295 32.497 37.5332 32.1863 37.816C32.1907 37.8327 32.1924 37.8479 32.1983 37.862C33.283 42.2629 31.7417 46.4521 28.2771 48.5322C26.8101 49.4197 25.0546 49.4511 23.5963 48.6092C23.37 48.4785 23.157 48.3307 22.9616 48.1645C22.045 48.2325 21.0981 48.0306 20.2295 47.529L20.2321 47.5306Z" fill="white"/>
<path d="M-8.51481 87.0665C-8.63853 86.9951 -8.76487 86.9221 -8.88814 86.8438C-9.35798 86.5513 -9.76723 86.251 -10.1295 85.985C-10.2429 85.9017 -10.3563 85.8185 -10.4697 85.7352L-10.668 85.5923C-10.9759 85.3719 -11.2849 85.1473 -11.5959 84.9322C-11.9837 84.6799 -12.395 84.4317 -12.8284 84.1673L-12.939 84.1035C-13.0754 84.0176 -13.207 83.9416 -13.3371 83.8629C-13.7751 83.6065 -14.2722 83.3124 -14.7817 82.9365C-15.3892 82.4933 -15.9425 82.0353 -16.4499 81.6072C-16.7387 81.3659 -17.0894 81.1101 -17.4627 80.8448L-17.6779 80.6886C-17.9178 80.5145 -18.1536 80.3393 -18.3946 80.161C-18.3999 80.158 -18.4104 80.1519 -18.4157 80.1489C-18.6383 79.9813 -18.8341 79.822 -19.0052 79.6806L-19.1582 79.5567C-19.3113 79.4327 -19.4633 79.313 -19.6179 79.1918C-19.9725 78.9124 -20.3403 78.6254 -20.7157 78.3091C-21.1962 77.9073 -21.6736 77.4575 -22.2081 76.9001C-22.6098 76.4834 -23.0027 76.1002 -23.3981 75.7333C-24.0862 75.1014 -24.9058 74.3083 -25.6539 73.3184C-26.5661 72.1022 -27.2095 70.8457 -27.5679 69.576C-27.9658 68.1983 -27.8688 66.6868 -27.3017 65.4432C-27.2971 65.4352 -27.294 65.4299 -27.2894 65.4219C-27.0622 64.9311 -26.6817 64.2053 -25.9772 63.5564C-25.5077 63.1202 -25.0169 62.7745 -24.4832 62.5068C-22.6002 61.5431 -20.7164 61.7208 -19.4692 61.8402L-19.2791 61.8575C-18.2797 61.9441 -17.1115 62.0605 -15.8943 62.3474C-15.2461 62.5012 -14.6425 62.6898 -14.1124 62.8537C-13.8447 62.9371 -13.5744 63.0221 -13.3037 63.1002L-13.0623 63.1685C-12.7218 63.2656 -12.3676 63.3634 -11.997 63.4814C-11.4926 63.6411 -10.9711 63.8321 -10.3164 64.0963C-9.99327 64.2296 -9.69206 64.3644 -9.42025 64.4893C-9.41488 64.1761 -9.40336 63.8522 -9.38569 63.5176C-9.34766 62.8074 -9.2635 62.0598 -9.13609 61.2981C-8.97113 60.2951 -8.73514 59.3757 -8.48728 58.4418C-8.38395 58.0501 -8.28936 57.6249 -8.19299 57.1723C-8.09752 56.7333 -7.99851 56.2822 -7.87886 55.8075C-7.71954 55.1851 -7.53217 54.593 -7.32135 54.0394C-7.16687 53.6381 -7.00275 53.2566 -6.85645 52.9181C-6.81465 52.8214 -6.77132 52.722 -6.72952 52.6253C-6.64458 52.4113 -6.56382 52.1985 -6.48151 51.983C-6.32043 51.5642 -6.15538 51.1263 -5.95343 50.6671C-5.60365 49.8668 -5.19977 49.1794 -4.87701 48.6264C-4.81853 48.5251 -4.76159 48.4265 -4.70772 48.3332C-4.55843 48.0746 -4.4012 47.778 -4.23583 47.4612C-3.98075 46.9829 -3.72061 46.4897 -3.40842 45.9733C-3.03775 45.3556 -2.64692 44.7638 -2.35017 44.3167C-2.12749 43.9796 -1.88198 43.6273 -1.6022 43.2522C-1.23877 42.4099 -0.708412 41.6676 -0.0188255 41.0385C0.569269 40.5002 1.2861 40.061 2.11498 39.7256C2.83561 39.4379 3.58292 39.2438 4.33606 39.149C5.51592 39.0021 6.58647 39.087 7.56633 39.2014C8.31841 39.2908 8.88897 39.3785 9.42989 39.4811C10.1988 39.6265 10.8972 39.8271 11.5138 40.0054C11.8638 40.1044 12.2425 40.2022 12.6401 40.3038C13.0135 40.3985 13.3896 40.4948 13.7611 40.5991C14.2763 40.7402 14.8082 40.9193 15.363 41.1437C15.7529 41.3012 16.1025 41.4676 16.4112 41.6138C16.5237 41.6681 16.6389 41.7239 16.753 41.7756C16.9638 41.8724 17.181 41.9765 17.3982 42.0805L17.679 42.2142C18.3294 42.5222 19.0225 42.8051 19.7555 43.1039L20.3009 43.3263C20.8779 43.5671 21.3921 43.8071 21.8815 44.0719C21.9857 44.1285 22.1057 44.1942 22.2215 44.2611C22.6137 44.4875 22.9673 44.7201 23.2487 44.9074L23.2829 44.9272C23.3156 44.9496 23.3483 44.972 23.3809 44.9944C23.6696 45.1753 23.9903 45.3676 24.4088 45.6092C24.6168 45.7293 24.8247 45.8493 25.03 45.9679L25.0932 46.0043C25.6091 46.3022 26.0886 46.6146 26.4738 46.8654L26.8642 47.1192C27.4816 47.5148 28.1186 47.9252 28.7721 48.4163C29.3165 48.823 29.7952 49.2522 30.2184 49.6316C30.3462 49.7445 30.4725 49.8601 30.603 49.9745C30.8322 50.1672 31.076 50.3649 31.3357 50.5717L31.4655 50.675C32.0171 51.1179 32.5445 51.5965 33.0312 52.0908C33.9063 52.9763 34.6901 54.026 35.3508 55.2036C36.0212 56.4011 36.38 57.5608 36.4447 58.7497C36.4442 58.7566 36.4464 58.7649 36.4444 58.7744C36.4913 59.7327 36.293 60.7023 35.8707 61.6101C35.7844 61.8446 35.6725 62.075 35.5395 62.2932C35.5287 62.3119 35.5179 62.3305 35.5072 62.3492C35.4935 62.3911 35.4072 62.6682 35.4072 62.6682C35.5355 62.7317 35.6544 62.7932 35.7654 62.8502C35.9359 62.9379 36.0901 63.0234 36.2454 63.1131C36.527 63.2757 36.7883 63.4372 37.019 63.5846L37.1581 63.672C37.561 63.9224 38.0969 64.2709 38.6491 64.7247C39.6383 65.534 40.4891 66.5832 41.1658 67.8305C41.6924 68.8028 42.1183 69.8342 42.4247 70.8961C42.7576 72.0337 42.9019 73.2367 42.8531 74.4702C42.8067 75.6448 42.5458 76.82 42.0573 78.0734C41.5833 79.2712 40.9415 80.237 40.4251 81.0159C39.6593 82.1661 38.8419 83.1016 37.9254 83.8805C36.9681 84.6997 35.9268 85.2572 35.0907 85.7022L35.0512 85.722C34.5745 85.9764 34.0771 86.2117 33.5227 86.4425C32.8615 86.7184 32.2176 86.8975 31.6747 87.0355C30.6541 87.2957 29.7083 87.3716 28.8737 87.4372L28.6569 87.4541C28.4604 87.4722 28.2587 87.4873 28.057 87.5023C29.0886 88.5422 29.9306 89.7463 30.5633 91.0819C30.8783 91.7401 31.1099 92.3785 31.2683 93.028C31.5798 94.3061 31.485 95.6375 30.9958 96.8799C30.5 98.1398 29.5047 99.2072 28.1944 99.8902C27.4592 100.276 26.6326 100.535 25.6728 100.677C23.8375 100.95 22.2376 100.585 20.9498 100.293C20.7815 100.256 20.6121 100.215 20.4438 100.178C20.2875 100.145 20.1381 100.112 19.9871 100.082C19.4188 99.9596 18.8327 99.838 18.2104 99.6635C17.5262 99.4747 16.7041 99.2453 15.8521 98.9702C15.3198 98.7979 14.8328 98.602 14.4056 98.43C14.1555 98.3283 13.9186 98.2342 13.7064 98.1579L13.3755 98.0379C12.7538 97.814 12.1109 97.5779 11.4451 97.2966C11.1287 97.1637 10.8196 97.0243 10.5116 96.8891C10.1573 96.7308 9.8214 96.5831 9.49561 96.4483C8.78413 96.1548 7.95747 95.8055 7.21579 95.4306C6.69346 95.1681 6.19374 94.9152 5.7192 94.7158C5.13167 94.469 4.53581 94.2245 3.93468 93.977C3.69664 93.8786 3.51676 93.789 3.39786 93.7275L3.34258 93.6956C3.14229 93.6048 2.90668 93.4901 2.65244 93.3469C2.63928 93.3393 2.62875 93.3332 2.61559 93.3256C2.28393 93.1341 1.95381 92.94 1.62939 92.742C1.36026 92.5759 1.10121 92.4228 0.840612 92.2724C0.580023 92.1219 0.34421 91.9893 0.107955 91.8636C0.0138426 91.8199 -0.0802665 91.7762 -0.175476 91.7284C-0.522528 91.5635 -0.914779 91.3797 -1.31622 91.1693C-1.88393 90.87 -2.43562 90.555 -2.95154 90.2571C-3.39375 90.0018 -3.84958 89.7458 -4.30322 89.4981C-4.42057 89.4339 -4.54846 89.3636 -4.67481 89.2906C-5.02226 89.09 -5.34251 88.8909 -5.65222 88.6979L-5.92926 88.5273C-6.12886 88.4049 -6.33264 88.2837 -6.53795 88.1652C-6.77222 88.0299 -7.01066 87.8958 -7.24955 87.7686C-7.25481 87.7655 -7.26271 87.761 -7.26797 87.7579C-7.40112 87.6846 -7.53582 87.614 -7.66787 87.5448C-7.94098 87.3978 -8.22352 87.2489 -8.5236 87.0756L-8.51481 87.0665Z" fill="white"/>
<path d="M16.4261 80.9792C16.9648 80.654 17.4781 80.2999 18.0056 79.9576C18.258 79.7941 18.5103 79.6305 18.7638 79.4712C18.9488 79.7344 19.1151 80.0117 19.3145 80.2619C19.7538 80.8141 20.2535 81.2981 20.8185 81.7238C21.0411 81.8914 21.2703 82.0415 21.5098 82.1798C22.1363 82.5415 22.8109 82.8137 23.4895 83.0669C24.2579 83.347 25.0533 83.5681 25.869 83.6445C26.7146 83.7239 27.5482 83.6721 28.3927 83.6016C29.1875 83.538 30.0018 83.4892 30.7794 83.2913C31.2237 83.1782 31.6633 83.0552 32.0886 82.8778C32.4957 82.7076 32.8927 82.5245 33.2831 82.3163C34.0386 81.9137 34.8137 81.5011 35.4717 80.939C36.1669 80.3488 36.738 79.6513 37.2447 78.8954C37.7065 78.1988 38.1822 77.4782 38.4898 76.6962C38.7816 75.9476 38.9868 75.1668 39.0211 74.3656C39.052 73.5766 38.9657 72.7839 38.7443 72.0306C38.512 71.2353 38.1878 70.4475 37.7952 69.7232C37.3855 68.9677 36.8647 68.2832 36.1996 67.7392C35.8601 67.4579 35.4949 67.2151 35.1209 66.9814C34.7496 66.7492 34.3745 66.5114 33.9836 66.307C33.5438 66.0779 33.0811 65.8641 32.601 65.7291C32.1598 65.6059 31.7167 65.51 31.2609 65.4424C30.9267 65.3951 30.5909 65.3506 30.2536 65.3087C30.4193 64.8818 30.5881 64.4497 30.7679 64.0168C31.104 63.2157 31.4764 62.4248 31.7369 61.5906C31.8343 61.2701 31.9437 60.9529 32.0221 60.6286C32.0603 60.5867 32.1049 60.552 32.1405 60.5086C32.1884 60.4438 32.2337 60.3776 32.2779 60.3071C32.2731 60.2972 32.2641 60.2885 32.2593 60.2786C32.4904 59.8966 32.6324 59.4561 32.6122 59.0108C32.5753 58.3391 32.3288 57.7205 32.0032 57.1416C31.5335 56.3017 30.9672 55.5198 30.2905 54.8377C29.8985 54.4407 29.4858 54.0674 29.0525 53.7177C28.7321 53.458 28.4101 53.2011 28.0954 52.9377C27.554 52.4651 27.0348 51.9663 26.4593 51.5345C25.8827 51.0986 25.2743 50.7117 24.6647 50.3207C24.2153 50.0292 23.6841 49.6728 23.1287 49.3521C22.4954 48.9901 21.8579 48.6291 21.2416 48.2377L21.2311 48.2317C21.2153 48.2225 21.1995 48.2134 21.1852 48.2016C20.8422 47.9751 20.4575 47.7175 20.0523 47.5013C19.6524 47.2882 19.2402 47.0964 18.8187 46.9207C17.8798 46.5349 16.9331 46.1625 16.015 45.7284C15.7168 45.5883 15.4244 45.4443 15.1247 45.3068C14.7204 45.1196 14.3201 44.9134 13.9035 44.7475C13.5136 44.5899 13.113 44.451 12.7064 44.3407C11.9445 44.1283 11.1763 43.9513 10.416 43.7363C9.84248 43.5687 9.27265 43.4067 8.68455 43.2947C8.1557 43.1955 7.6198 43.1207 7.08455 43.0569C6.3215 42.9682 5.5446 42.9035 4.77632 43.0002C4.34125 43.0547 3.91468 43.1674 3.50541 43.3292C3.16595 43.4673 2.82228 43.6492 2.54789 43.8995C2.23001 44.1887 2.00163 44.5296 1.85812 44.9301C1.83986 44.98 1.84463 45.0325 1.83207 45.0786C1.79186 45.13 1.75318 45.1788 1.7145 45.2275C1.40836 45.6301 1.11011 46.0373 0.834016 46.4608C0.502759 46.9555 0.179397 47.4548 -0.129709 47.9659C-0.578423 48.7127 -0.957605 49.5032 -1.39207 50.2617C-1.7245 50.8375 -2.13033 51.4918 -2.43985 52.1981C-2.71263 52.8226 -2.93451 53.4622 -3.18997 54.0931C-3.37543 54.5298 -3.57296 54.9632 -3.74373 55.4048C-3.90987 55.8385 -4.04508 56.2794 -4.16032 56.7282C-4.38618 57.6179 -4.546 58.5208 -4.77976 59.4059C-4.99104 60.1974 -5.20852 61.0422 -5.35051 61.9021C-5.44944 62.499 -5.52116 63.0973 -5.55205 63.6979C-5.58538 64.3149 -5.58995 64.9307 -5.58508 65.5484C-5.58304 66.5661 -5.69325 67.6932 -5.61054 68.8144C-5.56805 69.3365 -5.48955 69.851 -5.39174 70.3624C-5.72628 70.1941 -6.06082 70.0259 -6.39889 69.8698C-7.31261 69.4524 -8.25537 69.1036 -9.20364 68.7765C-9.68522 68.6015 -10.1633 68.4144 -10.6317 68.2044C-11.0191 68.0305 -11.4045 67.847 -11.7997 67.6864C-12.2573 67.5004 -12.7196 67.3224 -13.1946 67.1725C-13.592 67.0462 -13.9959 66.9373 -14.3968 66.8232C-15.2038 66.5918 -15.9967 66.3118 -16.817 66.1154C-17.7557 65.8934 -18.7092 65.7942 -19.672 65.7111C-20.694 65.6151 -21.8301 65.4674 -22.7907 65.9578C-23.0195 66.0745 -23.2134 66.222 -23.4024 66.3973C-23.5882 66.5672 -23.7085 66.7999 -23.8117 67.0211C-24.0107 67.4571 -23.9986 68.0257 -23.8706 68.4727C-23.6125 69.3752 -23.1371 70.2113 -22.5806 70.9556C-22.0475 71.6614 -21.4266 72.2758 -20.7797 72.8697C-20.3173 73.2966 -19.8693 73.7365 -19.4332 74.1909C-19.0495 74.5901 -18.654 74.9749 -18.2305 75.3296C-17.7426 75.7428 -17.2309 76.127 -16.7353 76.5269C-16.5225 76.6995 -16.3155 76.8759 -16.0967 77.0378C-15.8714 77.207 -15.6446 77.3734 -15.4179 77.5399C-14.9301 77.8926 -14.4324 78.2403 -13.9704 78.6315C-13.4888 79.0375 -13.0026 79.4355 -12.4969 79.8057C-12.0043 80.1683 -11.4581 80.4623 -10.9367 80.7811C-10.4348 81.0851 -9.93142 81.3864 -9.44032 81.709C-9.03127 81.9914 -8.62575 82.2859 -8.22132 82.5763C-7.76732 82.9024 -7.323 83.2513 -6.84373 83.5458C-6.75577 83.6001 -6.66627 83.6518 -6.57941 83.702C-6.19247 83.9254 -5.79322 84.1274 -5.39903 84.3444C-4.88857 84.6213 -4.38691 84.9074 -3.89338 85.2136C-3.40885 85.5112 -2.9331 85.8178 -2.43317 86.0887C-1.95585 86.3501 -1.47896 86.6183 -1.00779 86.8903C-0.505033 87.1806 -0.00753629 87.4678 0.507536 87.7367C0.951091 87.9715 1.41157 88.1769 1.86436 88.3957C2.47156 88.7178 3.06228 89.0624 3.64793 89.4219C3.94866 89.6062 4.25246 89.7851 4.56043 89.963C4.7131 90.0511 4.8761 90.1274 5.03756 90.2064C5.16063 90.2668 5.28588 90.3356 5.41356 90.388C6.02413 90.6374 6.63316 90.8895 7.24065 91.1443C7.8308 91.3926 8.40467 91.6813 8.97591 91.9684C9.56821 92.2677 10.2751 92.5692 10.9866 92.8627C11.6529 93.1372 12.3033 93.4452 12.9691 93.7266C13.655 94.0159 14.3544 94.2633 15.0534 94.5176C15.7257 94.7636 16.3834 95.0651 17.0668 95.2855C17.797 95.5223 18.5332 95.7305 19.2724 95.9334C19.9377 96.1184 20.6228 96.2509 21.2986 96.3994C22.5617 96.6737 23.8442 97.0481 25.1542 96.8519C25.6038 96.7845 26.0508 96.6729 26.4579 96.4601C26.8578 96.2538 27.2536 95.9207 27.4251 95.4901C27.6163 95.0069 27.6576 94.4977 27.5348 93.9931C27.4338 93.5723 27.2781 93.1732 27.0918 92.7848C26.6016 91.7554 25.9263 90.8217 25.1032 90.0408C24.6554 89.6188 24.2009 89.1964 23.7546 88.7717C23.3121 88.3528 22.8795 87.9288 22.4221 87.5297C21.9868 87.1468 21.5309 86.7876 21.0785 86.4163C20.6936 86.0981 20.3061 85.7784 19.9181 85.4656C19.0964 84.8099 18.2083 84.2509 17.3819 83.6032C16.5935 82.981 15.8247 82.3309 14.9776 81.7921C15.4776 81.5583 15.9482 81.272 16.4188 80.9857L16.4261 80.9792ZM3.47987 45.1485C3.48757 45.1351 3.49943 45.1207 3.5113 45.1062C3.52471 45.0891 3.54228 45.0708 3.55832 45.0551C3.58578 45.0319 3.61741 45.0075 3.64641 44.9816C3.68484 44.9576 3.72744 44.9324 3.76434 44.9111C3.81638 44.8878 3.86579 44.863 3.91892 44.8439C3.99862 44.8153 4.07788 44.7935 4.15713 44.7718C4.34132 44.7324 4.52724 44.7082 4.71426 44.6882C5.21275 44.6455 5.71317 44.6358 6.21028 44.6563C6.70277 44.6847 7.19084 44.739 7.67867 44.8181C8.29398 44.9316 8.90949 45.0631 9.52193 45.1998C9.94982 45.2976 10.3742 45.4075 10.793 45.5392C11.3527 45.7308 11.8874 45.972 12.4389 46.1838C12.9758 46.3907 13.5259 46.5625 14.0744 46.737C14.7726 46.9624 15.5712 47.2387 16.3357 47.5983C17.0579 47.9584 17.7554 48.3611 18.4576 48.7559C19.0861 49.1081 19.7359 49.405 20.3841 49.7047C21.001 50.0039 21.5896 50.3402 22.1675 50.713C22.609 50.9999 23.0547 51.2856 23.4993 51.5672C24.1291 51.9841 24.7341 52.4436 25.35 52.8845C25.9922 53.3405 26.6601 53.7581 27.2708 54.2565C27.855 54.7644 28.3845 55.3366 28.9098 55.91C29.3632 56.4135 29.8176 56.9211 30.2177 57.4684C30.3283 57.6354 30.4364 57.8008 30.5314 57.9766C30.5952 58.1093 30.6574 58.2448 30.7112 58.3825C30.7513 58.5016 30.786 58.6176 30.8136 58.7401C30.8302 58.8208 30.8426 58.9026 30.8524 58.9829C30.8556 59.0381 30.8547 59.0944 30.8538 59.1508C30.8485 59.1904 30.8447 59.2273 30.8394 59.2669C30.835 59.2927 30.8264 59.3198 30.8193 59.3441C30.8081 59.3697 30.8011 59.394 30.7898 59.4195L30.7575 59.4755C30.7452 59.4968 30.7276 59.5151 30.7127 59.5349C30.6879 59.5597 30.6657 59.586 30.6408 59.6107C30.6061 59.6405 30.5673 59.6713 30.5315 59.6969C30.4759 59.7323 30.4162 59.7689 30.358 59.8028C30.2747 59.8437 30.1931 59.8818 30.1103 59.9158C29.9998 59.9551 29.8857 59.9887 29.7704 60.0181C29.6306 60.0475 29.4912 60.0701 29.3511 60.0817C29.1714 60.0952 28.9894 60.1003 28.8121 60.0975C27.8523 60.0516 26.8962 59.8657 25.9498 59.6996C25.3801 59.5982 24.7468 59.4671 24.1243 59.2748C23.5826 59.1006 23.0486 58.9132 22.5038 58.7443C21.9107 58.5619 21.3137 58.3984 20.7206 58.216C20.2434 58.0577 19.7811 57.8797 19.3279 57.6678C18.6726 57.3499 18.0235 57.0213 17.3698 56.7008C16.7676 56.4064 16.1546 56.1307 15.5437 55.8455C15.2523 55.7057 14.8585 55.5246 14.4705 55.3396C14.0482 55.1349 13.6366 54.9116 13.2379 54.66C12.6419 54.2697 12.0686 53.8463 11.4738 53.4602C10.9432 53.1148 10.3942 52.8014 9.86007 52.4681C9.2762 52.0813 8.74441 51.6285 8.19197 51.1994C7.61102 50.7467 7.00281 50.3351 6.43527 49.8653C6.1173 49.5893 5.8169 49.295 5.53101 48.9878C5.08289 48.4873 4.63214 47.9854 4.24158 47.44C4.06713 47.1829 3.90147 46.9167 3.75403 46.6432C3.67167 46.4819 3.59765 46.3183 3.53088 46.1482C3.51578 46.1075 3.50484 46.0657 3.49237 46.0265C3.48432 45.9614 3.46902 45.9028 3.44845 45.8412C3.44999 45.8385 3.43205 45.7784 3.41674 45.7198C3.41391 45.7004 3.41371 45.6825 3.41088 45.6631C3.46195 45.5078 3.48472 45.3468 3.45108 45.1923L3.47724 45.1469L3.47987 45.1485ZM14.1728 83.4352C14.94 83.9847 15.7628 84.4562 16.5522 84.9795C17.013 85.306 17.4589 85.6522 17.8997 86.0134C18.3574 86.3878 18.8273 86.7409 19.2949 87.1104C20.277 87.8835 21.2188 88.7081 22.1565 89.5338C22.6738 89.9995 23.1625 90.4843 23.6172 91.0098C23.9809 91.4437 24.3399 91.8856 24.7078 92.3183C25.0349 92.7062 25.354 93.0895 25.6339 93.5105C25.7016 93.6243 25.7689 93.7449 25.835 93.8612C25.8871 93.9837 25.934 94.1032 25.9804 94.2295C25.9902 94.2672 26.0012 94.309 26.0095 94.3494C26.0164 94.4103 26.0249 94.4685 26.0293 94.5279C26.0305 94.5499 26.0277 94.5731 26.029 94.5952C26.0261 94.6184 26.0221 94.6375 26.0208 94.658C26.0287 94.6626 26.0047 94.7163 25.9807 94.77C25.9807 94.77 25.9673 94.7871 25.9601 94.7936C25.9482 94.8081 25.9352 94.8183 25.9207 94.8313C25.9036 94.8427 25.8876 94.8584 25.8704 94.8698C25.8377 94.89 25.8024 94.9087 25.7696 94.9289C25.729 94.9445 25.6899 94.9575 25.6478 94.9758C25.5852 94.993 25.5242 95.0075 25.4616 95.0247C25.2851 95.0508 25.1064 95.0685 24.9214 95.0789C24.261 95.0922 23.6063 95.0589 22.9453 95.0185C22.5557 94.982 22.1739 94.9321 21.7877 94.8655C21.354 94.7716 20.8908 94.6499 20.4369 94.5122C19.8905 94.346 19.3418 94.1963 18.7968 94.0095C18.2875 93.8399 17.7844 93.6597 17.2747 93.4969C16.8012 93.3444 16.3273 93.1987 15.8584 93.0382C15.1671 92.7706 14.4802 92.4771 13.7889 92.2094C13.1575 91.9657 12.5195 91.7395 11.9012 91.4608C11.242 91.1619 10.5856 90.8399 9.91408 90.5623C9.59092 90.4291 9.26776 90.2958 8.94921 90.1545C8.65808 90.0327 8.37773 89.8921 8.09847 89.7558C7.31863 89.3375 6.55662 88.8762 5.77172 88.4728C5.34088 88.2525 4.89112 88.0711 4.44445 87.8842C4.0162 87.7081 3.59192 87.5129 3.17334 87.3139C2.84715 87.1433 2.5282 86.9663 2.21124 86.7797C1.88638 86.5886 1.56767 86.3868 1.23973 86.2011C0.625973 85.8538 -0.00118768 85.5237 -0.618026 85.1818C-0.983261 84.9816 -1.33926 84.7654 -1.69526 84.5492C-2.00806 84.3615 -2.32328 84.1902 -2.64377 84.0158C-3.26477 83.675 -3.86249 83.3122 -4.45272 82.9181C-4.84026 82.641 -5.22583 82.3544 -5.63249 82.0983C-6.03279 81.8494 -6.43816 81.6154 -6.85385 81.3932C-7.61635 80.9814 -8.36347 80.5429 -9.08024 80.058C-9.36404 79.8444 -9.73162 79.5753 -10.093 79.2955C-10.3974 79.0629 -10.6957 78.8196 -11.0032 78.5924C-11.6504 78.1085 -12.3314 77.6833 -13.0193 77.2577C-13.5264 76.9081 -14.0185 76.5387 -14.4984 76.1479C-14.7512 75.9415 -15.001 75.7297 -15.2626 75.5325C-15.4916 75.3576 -15.7221 75.1855 -15.9407 74.9988C-16.4181 74.5917 -16.8868 74.1754 -17.3657 73.7709C-17.8488 73.3676 -18.3458 72.9883 -18.8247 72.5838C-19.1381 72.2998 -19.4286 72.0006 -19.7114 71.688C-20.4217 70.8514 -21.1403 70.0171 -21.75 69.1035C-21.8512 68.9384 -21.9467 68.7696 -22.0365 68.5969C-22.0742 68.504 -22.1119 68.4112 -22.1469 68.3199C-22.1677 68.2404 -22.1869 68.1582 -22.2077 68.0787C-22.2151 68.0246 -22.2198 67.9721 -22.2246 67.9196C-22.225 67.8838 -22.2228 67.8496 -22.2232 67.8138C-22.2219 67.7932 -22.2163 67.7715 -22.2124 67.7525C-22.2047 67.7392 -22.2038 67.7255 -22.1987 67.7106C-22.1941 67.7026 -22.191 67.6973 -22.1875 67.6851C-22.1829 67.6771 -22.1752 67.6638 -22.1649 67.652C-22.1602 67.644 -22.1515 67.6348 -22.1453 67.6242C-22.1293 67.6085 -22.1106 67.5944 -22.0972 67.5773C-22.0858 67.5697 -22.0759 67.5647 -22.0671 67.5556C-22.0188 67.5266 -21.9678 67.4992 -21.9184 67.4744C-21.8523 67.445 -21.7851 67.4198 -21.7195 67.3973C-21.6053 67.3637 -21.4943 67.3354 -21.3779 67.3102C-21.1393 67.2738 -20.8996 67.2416 -20.6581 67.2246C-20.3998 67.2209 -20.1435 67.2267 -19.8865 67.2436C-19.6696 67.2692 -19.4585 67.2987 -19.2426 67.3381C-18.3995 67.5192 -17.569 67.7463 -16.7304 67.9532C-16.0234 68.1268 -15.321 68.3084 -14.6316 68.543C-14.0785 68.7521 -13.4245 69.0053 -12.7579 69.2124C-12.1517 69.4025 -11.5435 69.5831 -10.9418 69.7811C-9.71496 70.2336 -8.56815 70.8672 -7.36569 71.3802C-6.80384 71.6228 -6.23584 71.8548 -5.67508 72.0933C-5.43858 72.1943 -5.2001 72.2857 -4.96052 72.3814C-4.80185 73.0488 -4.62078 73.7078 -4.35321 74.3386C-4.13994 74.8385 -3.89658 75.3166 -3.64904 75.7936C-3.44532 76.1885 -3.24622 76.5914 -3.03833 76.9851C-2.62826 77.7763 -2.14529 78.5385 -1.54325 79.1918C-1.01269 79.7682 -0.42368 80.286 0.179177 80.7798C0.605716 81.1291 1.05971 81.4552 1.53878 81.7318C1.71777 81.8351 1.90248 81.9347 2.09334 82.0235C2.53714 82.2336 2.99588 82.4238 3.4718 82.5599C3.82967 82.6635 4.18536 82.7586 4.54367 82.8553C5.29278 83.0532 6.04517 83.2637 6.8258 83.3341C7.78287 83.4211 8.72958 83.3314 9.68509 83.2326C10.7795 83.1181 11.8413 82.7928 12.899 82.4865C13.3221 82.8054 13.7467 83.1216 14.1759 83.4298L14.1728 83.4352ZM15.3158 79.6379C14.8832 79.8218 14.448 80.0042 14.0176 80.1964C13.6039 80.3841 13.192 80.587 12.7783 80.7747C12.4582 80.9097 12.131 81.0265 11.8021 81.1281C11.0555 81.3332 10.2999 81.4444 9.53817 81.5662C9.1413 81.6214 8.74248 81.6435 8.34191 81.6503C7.47891 81.6497 6.6098 81.6171 5.7526 81.5274C5.49123 81.4937 5.23755 81.4468 4.9806 81.3873C4.7151 81.3122 4.45994 81.2253 4.20566 81.1247C3.64644 80.8836 3.10152 80.6117 2.57353 80.3104C2.09337 80.0296 1.62398 79.7302 1.17306 79.3987C0.95617 79.2273 0.748711 79.0578 0.546761 78.8665C0.0352276 78.3544 -0.435 77.795 -0.886998 77.2284C-1.25372 76.7572 -1.61055 76.281 -1.92434 75.7729C-2.06521 75.5245 -2.19204 75.27 -2.31007 75.0064C-2.55638 74.4057 -2.75746 73.7813 -2.94756 73.1562C-3.08057 72.7239 -3.21358 72.2917 -3.33671 71.8545C-3.47425 71.3451 -3.59247 70.8325 -3.66635 70.31C-3.75058 69.611 -3.81286 68.9104 -3.89293 68.2101C-3.96842 67.5446 -4.04654 66.8774 -4.06035 66.2084C-4.05427 65.4015 -3.94306 64.5949 -3.84173 63.7933C-3.75835 63.1625 -3.65905 62.413 -3.56128 61.6662C-3.50821 61.2703 -3.43974 60.8478 -3.37237 60.4211C-3.29661 59.9495 -3.21559 59.4809 -3.09266 59.0187C-2.88033 58.274 -2.59032 57.5529 -2.32709 56.8234C-2.04514 56.0372 -1.83515 55.2236 -1.52643 54.4458C-1.21711 53.7216 -0.85361 53.0251 -0.539024 52.3039C-0.241368 51.6121 0.0442185 50.9168 0.419101 50.2554C0.608405 49.9275 0.815045 49.606 1.02014 49.2873C1.21447 48.9872 1.39409 48.6821 1.58687 48.3847C1.79768 48.0621 2.01485 47.7468 2.23464 47.4329C2.40245 47.7502 2.59001 48.0575 2.79933 48.3454C3.09741 48.7592 3.41415 49.1589 3.76144 49.53C4.1723 49.9734 4.62447 50.3695 5.06741 50.7816C5.53841 51.2241 5.9903 51.6876 6.47733 52.1145C6.84552 52.4373 7.23326 52.7322 7.63442 53.0101C8.00289 53.2654 8.38477 53.5037 8.74599 53.7656C9.05764 53.9917 9.35897 54.2297 9.67107 54.4489C10.0391 54.7112 10.4168 54.9506 10.8037 55.174C11.1275 55.3609 11.459 55.5345 11.7909 55.7012C12.2259 55.9204 12.6624 56.1369 13.0878 56.3789C13.4183 56.5662 13.7438 56.7684 14.0698 56.9637C15.0619 57.5613 16.1015 58.1011 17.175 58.5396C17.7656 58.7811 18.3637 58.9913 18.9582 59.2138C19.5087 59.4214 20.0407 59.661 20.5811 59.8983C21.1082 60.1281 21.6363 60.3441 22.1818 60.524C22.6511 60.6776 23.1279 60.8001 23.6051 60.9157C24.3394 61.0908 25.0667 61.3081 25.8084 61.452C26.3803 61.5618 26.9528 61.64 27.5364 61.6748C28.2874 61.7174 29.0521 61.6756 29.8 61.5777C29.8591 61.5727 29.9201 61.5582 29.978 61.549C29.7649 62.1795 29.5597 62.8145 29.3052 63.4318C29.1188 63.8822 28.8497 64.4092 28.5699 64.9301C28.5161 65.0234 28.4638 65.1141 28.4099 65.2074C27.4461 65.2232 26.4704 65.3387 25.5396 65.5833C25.2741 65.6539 25.0056 65.7299 24.7494 65.8273C24.6473 65.8643 24.5588 65.902 24.469 65.9604C24.1527 66.1616 24.0241 66.585 24.141 66.9297C24.2559 67.2839 24.6101 67.5275 24.9806 67.4997C25.0355 67.4959 25.0726 67.4924 25.1116 67.4794L25.1143 67.481C25.1143 67.481 25.1408 67.4714 25.1549 67.4653C25.3635 67.408 25.5725 67.3439 25.7795 67.2892C26.3395 67.1398 26.9083 67.024 27.4817 66.9427C27.7444 66.9131 28.0133 66.9155 28.2793 66.8985C28.6029 66.8791 28.9231 66.8472 29.2458 66.8416C29.5241 66.8459 29.7989 66.8623 30.0784 66.8887C30.3152 66.9223 30.5485 66.9681 30.7828 67.0181C31.4995 67.2115 32.1985 67.4658 32.8867 67.7388C33.1926 67.8656 33.4938 68.0004 33.7868 68.1554C33.95 68.2496 34.106 68.3503 34.26 68.4605C34.6536 68.7695 35.0209 69.106 35.3801 69.4626C35.6541 69.7417 35.9988 70.1113 36.3155 70.511C36.4573 70.7031 36.5882 70.8959 36.7087 71.1005C36.7878 71.2493 36.8611 71.4018 36.9303 71.5555C36.9892 71.721 37.0481 71.8865 37.0945 72.0554C37.1609 72.3355 37.208 72.6186 37.2453 72.9067C37.2696 73.1624 37.2902 73.4124 37.2926 73.6697C37.2848 73.9993 37.2618 74.3308 37.2242 74.6574C37.1665 75.0613 37.0899 75.4614 36.9866 75.8531C36.8868 76.1901 36.7713 76.5179 36.6421 76.8449C36.5539 77.0464 36.4578 77.2432 36.3511 77.434C36.2505 77.5962 36.1445 77.7554 36.0291 77.9127C35.8625 78.1222 35.6859 78.3188 35.4998 78.5135C35.0239 78.9851 34.511 79.4176 33.9869 79.833C33.6545 80.0925 33.3163 80.338 32.9605 80.5591C32.6684 80.7245 32.3652 80.8729 32.0576 81.0045C31.338 81.2964 30.6049 81.5449 29.8609 81.7516C29.462 81.8589 29.064 81.9526 28.6583 82.0169C28.4311 82.0457 28.2022 82.0592 27.9721 82.0686C27.4836 82.0638 27.0003 82.0193 26.518 81.9612C25.8291 81.8656 25.1405 81.7453 24.4633 81.5747C24.191 81.4992 23.9249 81.4131 23.6597 81.3133C23.3143 81.1637 22.9798 80.9954 22.6503 80.8123C22.2296 80.5623 21.817 80.2921 21.4236 80.001C21.1181 79.7642 20.8245 79.5129 20.5453 79.2486C20.4056 79.1076 20.2759 78.9616 20.1481 78.806C20.0387 78.6611 19.9366 78.5098 19.8417 78.3519C19.8364 78.3489 19.8353 78.3447 19.8316 78.339C19.7403 78.169 19.6572 77.9966 19.5841 77.8193C19.5659 77.784 19.5488 77.7528 19.5322 77.7147C19.3884 77.3438 19.2654 76.9671 19.1622 76.5805C19.08 76.2487 19.0103 75.9135 18.9657 75.5714C18.9446 75.3708 18.9402 75.1657 18.9248 74.9613C18.8904 74.5043 18.5014 74.1446 18.042 74.1744C17.6003 74.2038 17.2334 74.5962 17.2468 75.0411C17.2466 75.0658 17.2479 75.0879 17.2476 75.1126C17.2449 75.3847 17.2558 75.7002 17.2928 76.0131C17.3774 76.7479 17.6085 77.4358 17.9235 78.0939C17.5999 78.3443 17.2689 78.5832 16.9245 78.7967C16.4008 79.1021 15.861 79.3805 15.311 79.6281L15.3158 79.6379Z" fill="#111827"/>
<path d="M32.2567 75.6743C32.5276 75.0168 32.5946 74.3233 32.4664 73.6273C32.2056 72.2007 31.3515 70.9505 30.1047 70.2165C29.4671 69.8377 28.7775 69.5426 28.0792 69.2994C28.0329 69.2762 27.9846 69.2626 27.9421 69.2451C27.5599 69.1168 27.1658 69.0031 26.7644 68.9384C26.6711 68.9236 26.5831 68.9119 26.491 68.9014C26.4879 68.9067 26.4864 68.9094 26.4833 68.9147C26.2204 68.8837 25.9548 68.8513 25.689 68.8436C25.0157 68.8244 24.3342 68.8681 23.6786 69.037C23.3438 69.1245 23.0066 69.2284 22.6935 69.3817C22.6779 69.3905 22.6596 69.3977 22.644 69.4065C22.2764 69.5994 22.1149 70.0677 22.2567 70.4482C22.3964 70.8203 22.8298 71.0847 23.227 70.9622C23.3745 70.9194 23.5146 70.8652 23.661 70.8182C23.9144 70.7441 24.171 70.6826 24.4325 70.631C24.7181 70.5861 25.0069 70.5539 25.2934 70.538C25.3111 70.5376 25.3232 70.541 25.3384 70.5391C25.0375 70.9447 24.7392 71.3519 24.4322 71.7682C24.0441 72.2763 23.638 72.7669 23.2097 73.2412C22.8254 73.6697 22.4543 74.1059 22.0621 74.5299C22.0045 74.4291 21.9495 74.3298 21.8976 74.2252C21.8374 74.0803 21.7839 73.9357 21.7336 73.7858C21.6997 73.656 21.6711 73.5293 21.6482 73.3988C21.646 73.3904 21.6454 73.3794 21.6458 73.3725C21.5666 72.8897 21.0283 72.6002 20.5761 72.7087C20.1557 72.8108 19.8304 73.2343 19.8877 73.6761C19.889 73.6982 19.8944 73.7191 19.8957 73.7412C19.8964 73.7522 19.8975 73.7564 19.8997 73.7648C19.9051 73.7857 19.9064 73.8078 19.9103 73.8314C19.911 73.8424 19.9158 73.8523 19.9164 73.8634C19.9164 73.8634 19.9197 73.8759 19.9204 73.8869C20.0051 74.3481 20.1853 74.7898 20.4313 75.1843C20.5448 75.3706 20.6755 75.5456 20.8123 75.7099C20.8123 75.7099 20.8118 75.7108 20.8107 75.7125C20.8107 75.7125 20.8224 75.7228 20.8287 75.73C20.9819 75.9145 21.1492 76.0928 21.3257 76.2551C21.3902 76.3137 21.4593 76.3642 21.5264 76.4243C21.7007 76.5783 21.8766 76.7296 22.0639 76.8732C22.3255 77.0705 22.5949 77.2544 22.8708 77.4209C22.934 77.4573 22.9956 77.4965 23.0588 77.5329C23.68 77.8916 24.3443 78.1756 25.0439 78.3378C25.7759 78.5045 26.5124 78.5601 27.2655 78.508C27.8827 78.4662 28.4869 78.3317 29.0746 78.1343C29.7307 77.9159 30.3892 77.6386 30.9578 77.2311C31.5078 76.8378 31.9993 76.3148 32.2589 75.6827L32.2567 75.6743ZM30.3268 75.4487C30.2547 75.5492 30.1789 75.6441 30.1005 75.7374C30.0038 75.838 29.9045 75.937 29.8004 76.0262C29.7009 76.1074 29.6018 76.1817 29.5017 76.2518C29.3864 76.3239 29.2689 76.3876 29.1488 76.4497C29.0181 76.5058 28.8864 76.5577 28.7509 76.6039C28.5966 76.6463 28.4385 76.683 28.2793 76.7155C27.9703 76.7645 27.6546 76.7884 27.341 76.8028C27.0701 76.8099 26.8006 76.7965 26.5315 76.7762C26.1111 76.7325 25.6893 76.6667 25.2719 76.575C24.9489 76.5023 24.6325 76.412 24.3175 76.3012C24.0401 76.198 23.7701 76.0882 23.507 75.9542C23.3844 75.8869 23.2675 75.8159 23.151 75.738C23.3569 75.5334 23.5705 75.3154 23.784 75.0975C24.178 74.6888 24.5418 74.2591 24.9009 73.8195C25.5483 73.0204 26.2293 72.2299 26.7855 71.3639C26.9191 71.1567 27.0464 70.9423 27.1722 70.7306C27.2031 70.7378 27.2371 70.7396 27.2681 70.7468C27.4658 70.7935 27.6615 70.8496 27.8552 70.9152C28.0312 70.9813 28.1999 71.0538 28.3666 71.1359C28.5344 71.2221 28.6893 71.3186 28.8452 71.4193C29.0931 71.5979 29.3279 71.7868 29.5551 71.9891C29.7623 72.1834 29.9608 72.3868 30.1489 72.602C30.2613 72.7416 30.3707 72.8865 30.4702 73.0363C30.5282 73.1303 30.5795 73.2239 30.6277 73.3228C30.6632 73.4072 30.696 73.4902 30.7231 73.5769C30.7395 73.6397 30.7559 73.7025 30.7682 73.7664C30.7801 73.8551 30.7884 73.938 30.7936 74.0263C30.7924 74.1074 30.7901 74.1843 30.7863 74.2638C30.7748 74.3567 30.7607 74.4481 30.7413 74.5364C30.7142 74.638 30.6844 74.7381 30.6521 74.8367C30.6067 74.9456 30.5588 75.053 30.5082 75.1589C30.4513 75.2575 30.3943 75.3561 30.3279 75.4529L30.3268 75.4487Z" fill="#111827"/>
<path d="M26.3378 45.216C25.4464 45.7569 24.6301 44.4717 25.4938 43.8756C26.3363 43.2247 26.9897 42.166 27.0408 41.0865C26.9473 38.7684 25.7313 35.9871 27.9662 34.2741C29.4833 32.996 31.166 31.899 32.3274 30.2521C34.3068 28.0396 33.9024 24.8312 33.8367 22.1062C33.384 23.7109 33.1279 25.4006 32.4028 26.9119C31.4103 28.6492 29.9369 30.1799 28.1538 31.0982C26.4819 31.8603 24.8755 32.7704 23.3946 33.8703C22.4352 34.5533 21.6935 35.4793 21.3118 36.6024C21.0443 37.5036 20.5452 38.3741 20.7228 39.3368C21.1592 40.6053 22.0422 41.6412 22.9425 42.5803C24.127 43.3068 23.1436 44.925 22.0209 44.0671C21.6409 43.7162 21.2771 43.2218 20.9939 42.8308C20.2863 41.9105 19.4917 40.9221 19.0721 39.8375C18.7376 38.9335 19.1065 37.9238 19.2713 37.006C19.9054 35.3426 20.9015 33.9273 22.1338 32.6803C23.3579 31.5388 24.9484 30.9785 26.4032 30.2155C29.2312 28.5391 30.8995 26.993 31.8377 23.7387C32.1364 22.5285 32.3474 21.2997 32.5706 20.0743C32.617 19.696 32.6341 19.3078 32.8401 18.9753C33.2358 18.3081 34.2094 18.3726 34.5946 19.0002C35.4882 20.2305 35.2552 21.8802 35.5621 23.3121C35.8451 26.2869 35.2969 29.4856 33.385 31.8792C32.3102 33.1816 30.7498 33.9086 29.5352 35.052C28.477 36.0156 28.0352 37.4737 28.4737 38.8358C29.0547 41.1972 28.5729 43.8797 26.3431 45.219L26.3378 45.216Z" fill="#111827"/>
</g>
<defs>
<clipPath id="clip0_1_37591">
<rect width="66.5489" height="84.5066" fill="white" transform="translate(10.2534 0.322754) rotate(30)"/>
</clipPath>
</defs>
</svg>
