<svg width="114" height="114" viewBox="0 0 114 114" fill="none" xmlns="http://www.w3.org/2000/svg">
<g opacity="0.2" clip-path="url(#clip0_1_37610)">
<path d="M71.0023 75.9978C72.2474 74.6564 73.4231 73.2376 74.4851 71.7273C75.5456 70.2154 76.4779 68.6069 77.263 66.9212C78.0942 65.133 78.7112 63.2457 79.1917 61.3393L79.3123 60.862L79.4137 60.38C79.4772 60.0578 79.5579 59.7389 79.605 59.4134L79.7656 58.4403L79.8844 57.4604C80.021 56.151 80.0762 54.8308 80.039 53.5093C79.9899 52.1882 79.8527 50.8681 79.6247 49.56C79.3984 48.251 79.0503 46.9614 78.6304 45.699C76.9232 40.6582 73.729 36.0898 69.4503 32.8281C68.1359 31.8208 66.7098 30.9678 65.2348 30.2335C63.7574 29.5021 62.2183 28.8989 60.6389 28.4556C59.0616 28.0052 57.4527 27.6821 55.8311 27.4858C54.2081 27.3051 52.5758 27.247 50.9496 27.3073C49.3225 27.36 47.705 27.5674 46.1109 27.8767C44.5174 28.1897 42.9508 28.6095 41.4298 29.1539C39.9073 29.6922 38.4237 30.3285 36.9861 31.0504C35.554 31.7829 34.1702 32.601 32.8363 33.4897C31.2272 34.5648 29.7373 35.8346 28.3744 37.1566C28.0516 37.4773 27.7659 37.7788 27.5206 38.0674C27.281 38.3623 27.077 38.6393 26.9051 38.8989C26.7309 39.1563 26.5964 39.4038 26.4915 39.6359C26.3856 39.8668 26.3075 40.0804 26.2536 40.2776C26.0971 40.852 26.3203 41.0525 26.8056 40.908C27.0484 40.8356 27.3569 40.6768 27.7179 40.4333C28.0842 40.1951 28.5114 39.8809 28.9813 39.4835C30.1862 38.4944 31.4918 37.4153 32.7669 36.4406C35.699 34.1958 38.9735 32.3892 42.4628 31.2146C44.2063 30.6275 46.0014 30.1968 47.8165 29.9513C49.6329 29.7051 51.4736 29.639 53.2992 29.7557C55.318 29.8837 57.3786 30.2744 59.2881 30.6866C60.8147 31.0193 62.3126 31.5093 63.7473 32.1474C65.1873 32.7773 66.5409 33.5929 67.8123 34.514C70.3501 36.3739 72.4959 38.7606 74.1941 41.4162C74.8184 42.4083 75.3825 43.4416 75.8669 44.5131C76.3407 45.5888 76.745 46.695 77.0733 47.8235C77.3857 48.9558 77.6234 50.1079 77.7894 51.2713C77.9416 52.4368 78.0167 53.6108 78.0282 54.7855C78.0355 58.9753 77.0455 63.168 75.1489 66.9006C74.198 68.7696 73.0157 70.5235 71.6932 72.1716C70.3689 73.82 68.8994 75.3609 67.3489 76.8252C64.8683 79.1558 62.4411 81.2948 60.4601 83.4465C59.5498 84.4358 59.9463 84.8043 61.2376 83.9513C63.0656 82.7436 64.939 81.3981 66.7303 79.9427C68.2041 78.7471 69.617 77.3863 70.9643 75.9853C70.9769 75.9898 70.9886 75.994 71.0023 75.9978Z" fill="#0F5A8B"/>
<path d="M62.1933 72.3409C59.5124 78.2475 56.1232 84.1743 52.9338 89.4795C58.54 86.7658 65.046 86.7061 71.3025 86.8485C68.9521 87.01 66.5443 86.5151 64.2187 86.0969C62.5361 85.7944 61.1455 84.8053 60.4589 83.4657C59.73 82.0435 60.4272 79.0866 60.8407 77.5558C61.3122 75.8102 61.7837 74.0646 62.2552 72.319" fill="#0F5A8B"/>
<path d="M59.0832 79.6953C59.0103 80.2408 58.9579 80.7974 58.951 81.3798C58.9489 81.9634 58.9756 82.5708 59.1683 83.2528L59.2488 83.5098C59.2778 83.5958 59.3231 83.6889 59.3615 83.7772L59.423 83.9105L59.4543 83.976L59.485 84.0289L59.6087 84.2395C59.7827 84.5134 59.9715 84.777 60.1864 85.0137C60.6077 85.4962 61.1065 85.8899 61.6357 86.2113C62.201 86.5449 62.8069 86.7956 63.4288 86.9528C63.734 87.0357 64.0745 87.0903 64.3212 87.1339C64.5889 87.1804 64.8569 87.2303 65.1261 87.2821C66.1223 87.4758 67.1384 87.6652 68.1814 87.7976C69.2237 87.9301 70.298 87.9986 71.3906 87.9441C71.9946 87.9139 72.454 87.3988 72.4165 86.7936C72.3813 86.2225 71.9163 85.7753 71.3565 85.7519L71.3141 85.7503C69.4144 85.6771 67.5009 85.6232 65.5738 85.6564C63.6476 85.6864 61.7043 85.8224 59.768 86.1195L59.2943 86.1923L58.8218 86.2808C58.5072 86.3431 58.1908 86.3918 57.8781 86.4695L56.9379 86.6874L56.0047 86.9457C54.7655 87.3133 53.5468 87.7718 52.3684 88.3302L54.0269 90.1465C55.232 88.1473 56.4175 86.132 57.5693 84.0935C58.7197 82.054 59.8404 79.9938 60.9071 77.9002C61.4022 76.9367 61.8058 75.9129 62.1894 74.9091C62.5533 73.9451 62.5553 73.2112 62.366 72.672C62.0881 71.8875 61.282 72.1761 60.5444 73.4016C60.0759 74.1779 59.6418 75.0633 59.2528 75.9142C57.4596 79.8336 55.3077 83.5736 52.9349 87.1739C52.5778 87.7161 52.2008 88.2634 51.8475 88.8163C51.4765 89.3969 51.6494 90.1745 52.2338 90.553C52.5928 90.7854 53.0235 90.8133 53.3883 90.6657L53.4957 90.6213C53.7354 90.5223 53.9718 90.4201 54.203 90.3126C54.3193 90.2602 54.4317 90.201 54.5474 90.1501C54.6635 90.1 54.7781 90.0482 54.891 89.9945C56.478 89.2355 58.2152 88.7464 59.9961 88.4564C61.7779 88.1586 63.5977 88.0227 65.4262 87.9034C67.3599 87.7826 69.3215 87.8037 71.2918 87.8359L71.223 85.8629C70.4823 85.9141 69.7256 85.9072 68.9583 85.8524C67.7767 85.7722 66.5754 85.5867 65.3554 85.3873L64.4355 85.2368C64.353 85.2242 64.2969 85.2119 64.2297 85.1998C64.1648 85.1872 64.099 85.1777 64.0354 85.1602L63.8427 85.1139L63.6531 85.0572C63.1491 84.9012 62.6744 84.6604 62.2569 84.3501C61.8439 84.0358 61.4861 83.653 61.2324 83.2137C61.1568 83.0957 61.1349 83.0165 61.087 82.9237C61.0582 82.8128 61.0142 82.7144 60.9959 82.5869C60.9397 82.3501 60.9243 82.0747 60.9111 81.8018C60.8978 81.246 60.9524 80.66 61.0359 80.0751C61.121 79.4888 61.2372 78.8995 61.3743 78.3115C61.4826 77.8455 61.597 77.37 61.6925 76.9002C61.7888 76.431 61.8719 75.967 61.939 75.5088C62.0732 74.5925 62.1436 73.6997 62.1295 72.8366C62.1152 72.0424 61.5895 71.9463 61.2444 72.7665C60.7549 73.9272 60.3083 75.1629 59.9042 76.4037C59.8211 76.6587 59.7434 76.9171 59.6691 77.1777C59.5937 77.4441 59.5217 77.7192 59.4567 77.9959C59.3258 78.5501 59.2156 79.1163 59.1203 79.6913C59.1082 79.6926 59.097 79.6938 59.0832 79.6953Z" fill="#0F5A8B"/>
</g>
<defs>
<clipPath id="clip0_1_37610">
<rect width="79.6849" height="80.6566" fill="white" transform="matrix(-0.742482 0.669866 0.669866 0.742482 59.1646 0)"/>
</clipPath>
</defs>
</svg>
