<svg width="197" height="197" viewBox="0 0 197 197" fill="none" xmlns="http://www.w3.org/2000/svg">
<g clip-path="url(#clip0_1_37110)">
<path d="M36.0966 31.3489C35.9234 30.7756 36.9334 30.4216 37.0854 31.0276C37.5067 32.103 37.8415 33.2131 38.3243 34.2654C38.1089 34.5982 37.5567 34.9522 37.2816 34.4847C36.7814 33.492 36.3236 32.4435 36.0966 31.3489Z" fill="#0F5A8B"/>
<path d="M155.574 36.5527C155.826 36.4141 156.136 36.0467 156.436 36.3006C156.996 36.7797 157.425 37.4011 158.044 37.8128C158.287 38.0128 158.627 38.1398 158.76 38.4438C158.843 38.7824 158.491 38.9594 158.333 39.1941C157.569 38.9709 156.984 38.4092 156.405 37.8955C156.021 37.528 155.586 37.124 155.574 36.5527Z" fill="#0F5A8B"/>
<path d="M32.1528 94.0809C32.4722 93.8943 32.8377 94.1059 32.8993 94.4541C33.1878 95.3814 33.5899 96.2683 33.9343 97.1763C34.1632 97.6611 33.2686 98.0786 33.0166 97.6246C32.5761 96.9243 32.3741 96.1105 32.0528 95.3545C31.9104 94.9485 31.6103 94.3194 32.1528 94.0809Z" fill="#0F5A8B"/>
<path d="M76.1701 47.2107C81.0335 46.2026 86.0432 45.8832 90.9893 46.3642C102.217 47.3126 113.365 48.9921 124.487 50.7601C125.005 50.8448 125.545 50.9025 126.005 51.1795C122.25 52.3838 118.59 53.8594 114.928 55.3119C113.086 56.0718 111.203 56.7394 109.441 57.6782C107.773 58.5478 106.02 59.2519 104.196 59.7136C100.166 60.7948 96.2914 62.3474 92.3591 63.7248C89.6369 64.6656 86.9224 65.639 84.179 66.5201C83.2786 66.851 82.4052 66.3278 81.5587 66.0796C77.4725 64.7675 73.3902 63.4362 69.3443 62.0049C68.8326 61.7991 68.3266 61.5797 67.786 61.4662C69.2058 60.9218 70.7064 60.6294 72.1781 60.2619C76.6587 59.2288 81.1374 58.1803 85.5968 57.0549C85.8181 57.0203 86.0739 56.8856 86.2817 57.0376C86.9993 57.4762 87.8381 57.759 88.6865 57.5936C89.4253 57.4974 90.3622 57.0568 90.3776 56.2027C90.114 55.1561 88.8693 54.7983 87.9131 54.8656C87.0936 54.8964 85.9739 55.2734 85.9527 56.2488L85.922 56.4316C81.3375 57.5147 76.7722 58.6748 72.1685 59.679C70.4082 60.0407 68.6941 60.5967 66.9569 61.0392C64.8368 60.0561 62.5244 59.6155 60.2908 58.9614C57.1261 58.1265 53.9999 57.1415 50.8083 56.4104C49.3789 56.0872 47.9533 55.7544 46.522 55.4427C46.8067 55.2196 47.1684 55.1349 47.5089 55.0349C53.7844 53.29 60.0599 51.5451 66.3278 49.7751C69.6002 48.8883 72.8476 47.8956 76.1701 47.2107Z" fill="#0F5A8B"/>
<path d="M133.191 51.0525C133.993 50.2964 135.147 49.9828 136.23 50.0636C137.51 50.2445 138.67 51.1814 139.039 52.4338C140.48 52.276 142.127 52.1241 143.368 53.0283C143.895 53.3726 144.147 53.9613 144.462 54.4788C145.613 54.7385 146.94 54.8328 147.845 55.6716C148.439 56.1237 147.818 56.9471 147.204 56.899C142.956 56.9721 138.708 56.62 134.46 56.7605C133.245 56.7951 132.042 57.0818 130.826 57.0202C130.113 57.0375 129.276 56.3815 129.564 55.6081C129.916 54.4577 131.238 54.1729 132.246 53.8613C132.15 52.8532 132.44 51.7624 133.191 51.0525Z" fill="#0F5A8B"/>
<path d="M123.881 52.5378C124.706 52.2589 125.511 51.9049 126.373 51.751C126.49 52.6052 125.684 53.14 125.016 53.4536C120.534 55.3101 116.08 57.2358 111.596 59.0846C111.057 59.2943 110.52 59.5175 110.037 59.8388C108.968 60.5679 107.731 60.9834 106.565 61.5221C102.569 63.1901 98.5328 64.7618 94.4312 66.1489C91.228 67.2166 88.0249 68.3209 84.7332 69.0827C84.6332 68.4209 84.4158 67.788 84.1426 67.1782C85.9567 66.6953 87.6997 65.9873 89.4812 65.3986C93.175 64.1539 96.8168 62.761 100.505 61.499C102.729 60.7256 105.037 60.2274 107.236 59.3809C108.881 58.7672 110.393 57.8572 112.017 57.1916C115.94 55.5602 119.899 54.0172 123.881 52.5378Z" fill="#0F5A8B"/>
<path d="M46.1411 56.0603C47.6494 56.2604 49.1115 56.6932 50.5929 57.028C53.3805 57.6455 56.1065 58.4939 58.8615 59.2365C61.272 59.9041 63.6903 60.5428 66.0758 61.3008C65.3525 61.5913 64.6253 61.8972 63.8827 62.1242C62.257 61.7568 60.6737 61.2219 59.0673 60.7775C56.8818 60.1196 54.6675 59.554 52.4936 58.8576C51.9742 60.9872 51.195 63.0938 51.1796 65.312C51.6971 65.5275 52.2493 65.8218 52.4493 66.3855C52.6994 66.8645 52.5705 67.4013 52.4878 67.9034C52.9803 69.5964 53.5748 71.297 54.5906 72.7591C55.0023 73.4113 55.564 73.9577 55.9296 74.6406C54.933 75.6526 53.5536 76.2701 52.1242 76.2432C50.4909 76.2547 48.5748 75.7795 47.7456 74.2232C47.2973 73.5787 47.3474 72.7688 47.2742 72.0319C47.5744 71.8338 47.5667 71.4509 47.6609 71.1393C47.9207 70.0388 48.4151 69.0096 49.0057 68.0515C48.5228 66.9876 49.1192 65.3428 50.4178 65.3197C50.5601 63.0496 51.0969 60.8179 51.8049 58.6632C50.3389 58.2227 48.8229 57.961 47.3704 57.4859C46.726 57.2723 46.3181 56.6894 46.1411 56.0603ZM50.4909 66.297C50.0869 66.3643 49.629 66.6914 49.7291 67.1531C49.8676 67.9476 50.9738 68.3151 51.5086 67.6648C52.18 67.0531 51.2662 65.9372 50.4909 66.297Z" fill="#0F5A8B"/>
<path d="M85.0368 69.7194C93.7537 67.3166 102.274 64.2038 110.52 60.4985C110.845 64.7117 110.989 68.9422 111.22 73.1631C120.73 73.8422 130.241 74.5155 139.752 75.1658C141.33 75.3236 143.136 76.0719 143.667 77.7033C143.354 77.6437 143.042 77.5841 142.736 77.5071C141.707 77.0877 140.562 77.1243 139.472 77.0839C138.45 77.4398 137.629 78.2208 136.69 78.7518C136.599 78.6287 136.42 78.3844 136.332 78.2612C137.467 77.5321 138.615 76.8222 139.702 76.02C130.214 75.4717 120.739 74.7387 111.262 74.0288C111.284 74.9503 111.361 75.8699 111.411 76.7914C111.478 77.2128 111.084 77.4725 110.82 77.7245C109.55 78.7634 107.984 79.3347 106.476 79.9292C104.494 80.6718 102.494 81.3701 100.476 82.0089C99.6406 82.2878 98.7576 82.4129 97.9419 82.7495C94.6925 84.4964 91.5124 86.3836 88.4939 88.5075C88.2573 88.7153 87.9476 88.6999 87.6609 88.6326C87.9687 87.9881 88.6402 87.6745 89.1865 87.2667C91.3489 85.7969 93.5459 84.3598 95.8872 83.1882C92.6032 83.7191 89.3193 84.3482 85.9872 84.4829C83.4266 84.5464 80.8679 84.4002 78.3092 84.3809C76.4835 84.2713 74.6366 84.3617 72.8321 83.9981C71.7605 83.7711 70.8043 83.2132 69.829 82.738C69.6385 82.6149 69.3807 82.5533 69.2614 82.3475C69.2614 80.2928 69.373 78.2247 69.221 76.1739C69.1826 76.0912 69.1095 75.9257 69.0729 75.843C69.223 75.4929 69.3749 75.1446 69.5308 74.7983C69.2807 74.731 69.0325 74.6637 68.7843 74.5963C68.7824 74.7503 68.7805 75.0581 68.7786 75.21C68.4092 75.5506 68.0244 75.8757 67.6166 76.17C67.3338 76.1373 67.0529 76.1046 66.7739 76.07C67.4165 75.3967 68.263 74.9426 68.844 74.2097C69.0575 74.0654 68.8747 73.8922 68.7901 73.7422C68.969 73.4921 69.2653 73.267 69.2133 72.9226C69.1979 70.26 69.2095 67.5975 69.221 64.9368C74.0652 66.4624 78.8286 68.2554 83.669 69.7964C84.1211 70.0003 84.5943 69.8772 85.0368 69.7194Z" fill="#0F5A8B"/>
<path d="M64.479 62.4281C65.3043 62.2241 66.1066 61.9009 66.9511 61.7932C72.3782 63.8921 77.9631 65.5716 83.4845 67.3896C83.7577 67.9937 83.8885 68.6459 84.0366 69.2884C80.4853 67.9706 76.8665 66.8433 73.2978 65.5697C71.8954 65.0849 70.4852 64.6174 69.1327 64.0018C67.6206 63.3688 66.02 62.9821 64.479 62.4281Z" fill="#0F5A8B"/>
<path d="M63.1766 142.969C63.2536 142.927 63.4094 142.84 63.4883 142.798C64.9716 142.858 66.4875 142.79 67.9477 143.087C68.5287 143.189 68.2728 144.147 67.7361 144.027C66.3586 143.812 64.9619 143.862 63.5768 143.768C63.1574 143.766 62.9054 143.312 63.1766 142.969Z" fill="#0F5A8B"/>
<path d="M52.4243 147.506C53.6017 147.4 54.7925 147.456 55.9757 147.39C56.297 147.329 56.3932 147.713 56.4047 147.954C56.2489 148.381 55.7429 148.264 55.3928 148.269C54.4001 148.229 53.3997 148.344 52.4128 148.231C51.9626 148.206 52.0107 147.529 52.4243 147.506Z" fill="#0F5A8B"/>
<path d="M190.194 155.051C191.762 154.997 193.328 154.878 194.896 154.849C195.29 154.762 195.571 155.332 195.298 155.609C195.026 155.992 194.499 155.792 194.113 155.822C191.288 155.88 188.462 155.997 185.636 155.947C185.342 155.93 185.017 155.953 184.765 155.776C184.672 155.545 184.799 155.253 185.082 155.28C186.779 155.114 188.491 155.161 190.194 155.051Z" fill="#0F5A8B"/>
<path d="M82.1224 158.858C84.7657 158.42 87.4014 157.921 90.0524 157.529C90.6815 157.377 90.8854 158.358 90.2621 158.512C87.3148 158.953 84.3637 159.391 81.3971 159.695C81.0047 159.737 80.5814 159.749 80.2524 159.497C80.7507 159.02 81.4837 159.003 82.1224 158.858Z" fill="#0F5A8B"/>
<path d="M64.554 77.2455C66.02 76.147 67.5032 75.0523 68.7903 73.7422C68.8749 73.8922 69.0577 74.0654 68.8441 74.2097C68.2631 74.9427 67.4167 75.3967 66.7741 76.07C67.053 76.1046 67.3339 76.1374 67.6167 76.1701C66.0757 77.2705 64.3789 78.1266 62.7995 79.1674C62.4686 79.3271 62.3762 79.6714 62.4185 80.0177C64.2346 78.8653 66.0815 77.7514 67.8033 76.4586C68.3613 75.943 69.0692 75.5063 69.3501 74.7676C69.1539 74.908 68.9634 75.0562 68.7787 75.2101C68.7806 75.0581 68.7826 74.7503 68.7845 74.5964C69.0327 74.6637 69.2808 74.731 69.5309 74.7984C69.3751 75.1447 69.2231 75.4929 69.0731 75.843C69.1096 75.9257 69.1827 76.0912 69.2212 76.1739C68.5786 76.8934 67.7495 77.3975 66.9626 77.9361C63.6575 80.1004 60.2773 82.1455 56.9453 84.2636C53.9364 86.1432 50.9468 88.0535 47.9052 89.8812C49.2095 90.1409 50.5235 90.3391 51.8336 90.5718C60.2619 91.9551 68.6825 93.3787 77.107 94.7831C85.6507 96.2356 94.2137 97.5996 102.757 99.0501C103.069 98.9636 103.338 98.7731 103.615 98.6096C114.499 91.7915 125.47 85.1159 136.332 78.2613C136.421 78.3844 136.599 78.6287 136.69 78.7518C125.601 85.7738 114.383 92.5899 103.275 99.5792C102.882 99.8505 102.398 99.7446 101.963 99.6735C99.9794 99.2964 97.9786 99.0174 95.9913 98.6577C95.0274 98.4403 94.0867 98.8712 93.1363 98.9809C81.0662 101.045 68.7999 101.776 56.5643 101.786C55.4043 101.736 54.1923 101.895 53.0976 101.411C53.6074 100.916 54.3558 100.882 55.0234 100.891C64.6502 100.962 74.2924 100.678 83.8712 99.6638C87.1513 99.3099 90.4103 98.7904 93.6692 98.2652C90.4699 97.69 87.2494 97.2379 84.0501 96.6569C79.5272 95.9605 75.0273 95.1178 70.4986 94.458C70.0369 94.9235 69.6175 95.4564 69.0519 95.8027C67.811 95.5988 67.5051 93.8212 66.1835 93.6865C64.8406 93.4903 63.5113 93.1921 62.1608 93.0478C61.0969 93.9559 59.8964 94.685 58.7575 95.4911C54.8156 98.2114 50.8121 100.845 46.7778 103.427C47.3858 104.321 47.809 105.318 48.2572 106.297C50.2253 106.139 52.1934 106.003 54.1634 105.861C54.2634 105.978 54.4654 106.211 54.5674 106.328C52.6744 106.493 50.7794 106.592 48.8863 106.74C48.5016 106.747 48.0918 106.965 47.7243 106.82C47.353 106.238 47.1645 105.564 46.8278 104.964C46.5354 104.383 46.1083 103.858 45.9756 103.208C51.1776 99.8909 56.2508 96.376 61.345 92.8977C56.801 92.1071 52.2434 91.4029 47.6993 90.6084C47.4435 90.5603 47.1953 90.491 46.9471 90.4199C46.8894 90.3198 46.7759 90.1217 46.7201 90.0235C47.0048 89.7196 47.3242 89.4483 47.6801 89.2329C51.6336 86.78 55.5774 84.3117 59.5193 81.8434C60.2946 81.3606 61.0469 80.843 61.8587 80.4198C61.8741 79.9946 61.6028 79.456 61.9684 79.1174C62.7552 78.3959 63.7075 77.89 64.554 77.2455ZM67.9649 94.002C68.3035 94.3329 68.6498 94.66 69.0404 94.9312C69.2308 94.7081 69.4194 94.483 69.604 94.256C69.0615 94.1521 68.5132 94.079 67.9649 94.002Z" fill="#0F5A8B"/>
<path d="M172.048 124.004C172.71 122.263 174.77 121.092 176.6 121.64C177.242 121.846 177.735 122.575 177.471 123.246C177.131 124.035 176.363 124.535 175.64 124.939C175.488 124.803 175.341 124.666 175.197 124.529C175.87 124.027 177.09 123.441 176.759 122.423C175.686 121.811 174.312 122.252 173.489 123.081C173.085 123.425 172.852 123.97 172.375 124.216C172.292 124.164 172.131 124.056 172.048 124.004Z" fill="#0F5A8B"/>
<path d="M157.648 74.7485C157.915 74.6561 158.142 74.9139 158.225 75.1448C158.654 76.1798 159.066 77.2225 159.549 78.2345C159.699 78.5731 159.897 78.9078 159.922 79.2887C159.722 79.6215 159.179 79.8389 158.937 79.4369C158.452 78.6577 158.177 77.7689 157.777 76.9455C157.544 76.3376 157.131 75.747 157.194 75.0717C157.304 74.9062 157.454 74.7985 157.648 74.7485Z" fill="#0F5A8B"/>
<path d="M115.689 77.6208C115.982 77.2938 116.659 77.7516 116.155 78.0287C112.684 80.3892 108.987 82.3881 105.222 84.233C101.919 85.8067 98.6367 87.4458 95.5316 89.3889C94.31 90.1411 93.1364 90.9664 91.934 91.7456C91.7821 92.0149 91.1549 91.6455 91.4473 91.4743C96.026 87.8517 101.372 85.4162 106.571 82.8344C109.703 81.2665 112.733 79.4965 115.689 77.6208Z" fill="#0F5A8B"/>
<path d="M162.044 92.0015C162.302 91.2281 163.333 90.8164 164.037 91.2493C164.738 91.6379 164.957 92.4748 165.132 93.1981C165.773 96.4186 164.955 99.6795 165.045 102.919C165.719 101.952 166.219 100.791 167.25 100.137C167.758 99.8007 168.566 99.9296 168.787 100.545C169.061 101.322 168.822 102.165 168.616 102.933C168.102 104.497 167.493 106.076 166.433 107.361C166.03 107.813 165.559 108.256 164.942 108.366C165.042 109.181 164.928 109.999 164.905 110.817C165.513 109.976 166.017 108.954 166.996 108.489C167.516 108.233 168.185 108.398 168.526 108.868C168.98 109.483 168.98 110.295 168.859 111.019C168.424 113.383 167.337 115.563 166.138 117.625C165.803 118.162 165.486 118.76 164.895 119.058C164.894 120.353 164.994 121.652 164.947 122.946C164.899 123.042 164.803 123.231 164.755 123.327C164.428 123.277 164.155 123.119 164.195 122.764C164.147 121.692 164.151 120.62 164.122 119.549C163.556 119.643 163.202 119.164 162.847 118.82C161.821 117.754 160.892 116.567 160.272 115.216C160.024 114.612 159.87 113.866 160.217 113.271C160.626 112.623 161.563 112.527 162.164 112.964C163.077 113.602 163.656 114.601 164.155 115.574C164.168 113.508 164.072 111.434 164.23 109.376C164.199 109.493 164.136 109.73 164.105 109.847C163.835 109.853 163.543 109.897 163.322 109.718C161.765 108.793 160.588 107.369 159.588 105.888C159.01 104.97 158.414 104.022 158.183 102.95C158.018 102.215 158.324 101.299 159.103 101.072C159.87 100.807 160.617 101.33 161.069 101.913C162.396 103.596 163.187 105.616 164.251 107.458C164.226 106.909 164.191 106.363 164.228 105.817C164.338 104.02 164.222 102.219 164.309 100.422C164.068 100.347 163.833 100.27 163.599 100.191C162.879 98.3424 162.285 96.4359 161.96 94.4756C161.84 93.6579 161.738 92.7903 162.044 92.0015ZM162.729 93.6906C162.898 95.2739 163.362 96.8092 163.841 98.3232C163.997 98.8119 164.078 99.3371 164.347 99.7834C164.436 97.6364 164.649 95.4586 164.241 93.3309C164.105 92.7614 163.932 92.09 163.322 91.863C162.608 92.1824 162.673 93.0385 162.729 93.6906ZM165.059 104.035C165.049 105.161 164.98 106.29 165.065 107.415C165.707 107.011 166.148 106.365 166.523 105.72C167.092 104.637 167.604 103.51 167.904 102.319C167.997 101.786 168.189 101.174 167.802 100.711C166.592 101.561 166.192 103.112 165.059 104.035ZM159.218 103.402C159.624 104.354 160.182 105.236 160.771 106.086C161.686 107.329 162.718 108.577 164.145 109.247C164.301 108.773 164.076 108.369 163.681 108.115C162.679 106.265 161.813 104.324 160.582 102.606C160.284 102.196 159.83 101.68 159.264 101.911C158.808 102.302 159.047 102.933 159.218 103.402ZM166.781 109.63C166.163 110.295 165.823 111.278 164.911 111.615C164.986 113.758 164.79 115.905 164.945 118.046C166.207 115.969 167.302 113.766 167.927 111.407C168.064 110.697 168.295 109.839 167.766 109.233C167.379 109.085 167.035 109.376 166.781 109.63ZM160.8 114.089C161.073 115.461 161.956 116.605 162.839 117.65C163.227 118.05 163.56 118.558 164.111 118.748C164.13 117.902 164.141 116.994 163.676 116.251C163.168 115.372 162.737 114.393 161.94 113.731C161.586 113.423 160.678 113.445 160.8 114.089Z" fill="#0F5A8B"/>
<path d="M142.737 77.5071C143.042 77.584 143.354 77.6437 143.668 77.7033C143.87 78.6556 143.294 79.4963 142.619 80.0985C141.607 81.1431 140.201 81.6318 139.043 82.4648C138.491 84.1289 138.941 85.893 139.429 87.5129C139.72 89.6272 139.893 91.7607 140.084 93.8865C142.238 92.6149 144.391 91.3125 146.4 89.8215C146.744 89.6772 147.148 90.0754 147.034 90.4333C146.602 90.8719 146.042 91.1586 145.545 91.5164C145.826 93.2786 146.24 95.0178 146.457 96.7896C146.513 97.1686 146.423 97.5438 146.344 97.9131C146.261 97.9631 146.092 98.0651 146.007 98.1151C146.199 99.0232 146.463 100.056 145.794 100.835C145.922 102.875 146.438 104.92 146.461 106.953C143.248 108.662 140.03 110.393 136.777 112.036C137.309 112.257 138.06 112.328 138.289 112.957C138.493 113.417 138.077 113.837 137.762 114.118C136.775 114.945 135.732 115.707 134.656 116.417C138.702 116.443 142.75 116.34 146.798 116.361C147.467 116.405 147.894 117.009 148.391 117.386C148.144 117.442 147.898 117.498 147.654 117.555C147.29 117.288 146.821 117.346 146.4 117.34C143.773 117.425 141.147 117.273 138.521 117.357C136.855 117.407 135.187 117.33 133.525 117.409C132.85 117.696 132.334 118.25 131.732 118.654C126.557 122.411 121.101 125.757 115.695 129.166C114.739 129.702 113.868 130.474 112.736 130.601C112.609 130.349 112.49 130.099 112.371 129.849C104.691 129.437 97.0014 129.131 89.3291 128.569C85.5854 128.402 81.8531 128.06 78.1113 127.84C76.8281 127.786 75.543 127.534 74.2636 127.759C70.9835 128.054 67.7072 128.371 64.4213 128.594C65.2851 129.545 66.1759 130.47 67.007 131.449C71.9666 137.09 76.9916 142.675 81.9224 148.342C82.7573 149.306 83.4615 150.434 84.5984 151.078C86.453 152.161 88.6962 152.357 90.8009 152.2C91.3761 152.227 91.7955 151.755 92.3553 151.719C98.8232 150.674 105.305 149.726 111.778 148.725C129.797 145.926 147.825 143.177 165.847 140.407C167.748 140.105 169.843 139.514 171.001 137.85C171.132 138.021 171.267 138.194 171.402 138.367C170.168 140.195 167.856 140.778 165.803 141.111C155.422 142.756 145.026 144.308 134.639 145.926C120.214 148.14 105.795 150.409 91.3569 152.533C89.989 152.954 88.5269 152.852 87.1225 152.702C86.049 152.521 84.9313 152.259 84.0579 151.574C83.5769 151.205 83.5153 150.489 82.9651 150.195C82.463 149.862 81.9513 149.537 81.5453 149.089C76.3529 143.277 71.2298 137.4 66.0431 131.582C65.1909 130.607 64.3579 129.616 63.4998 128.648C58.242 129.008 52.9784 129.325 47.7071 129.412C46.6586 129.441 45.6025 129.524 44.5617 129.354C44.7367 129.214 44.9118 129.071 45.0926 128.939C48.9711 128.542 52.8745 128.483 56.7664 128.254C66.6607 127.802 76.528 126.909 86.3838 125.955C97.9825 124.903 109.537 123.446 121.134 122.373C121.043 121.701 120.972 121.028 120.893 120.356C120.218 120.689 119.579 121.105 118.879 121.386C118.339 121.511 117.777 121.426 117.228 121.415C111.819 121.234 106.407 121.113 100.997 120.93C99.7197 120.911 98.4404 120.812 97.1668 120.874C88.6135 122.686 79.9101 123.679 71.2105 124.489C66.7896 124.885 62.3552 125.166 57.915 125.256C57.4186 125.239 56.8819 125.278 56.4413 125.006C56.2816 124.514 57.0261 124.454 57.3686 124.406C67.5957 124.112 77.817 123.34 87.9401 121.851C90.1121 121.486 92.2899 121.157 94.4638 120.807C93.1826 120.645 91.8917 120.626 90.6027 120.609C80.8528 120.305 71.1009 120.076 61.3509 119.766C61.0585 119.772 60.8296 119.577 60.5968 119.437C55.6006 123.052 50.2774 126.201 44.7233 128.873C44.4058 129.029 44.1769 129.314 43.8652 129.479C43.4843 129.612 43.088 129.499 42.709 129.429C42.6725 129.218 42.6417 129.008 42.6147 128.796C43.3939 128.317 44.2538 127.998 45.0715 127.598C47.18 126.586 49.2731 125.543 51.3124 124.398C54.2751 122.742 57.1108 120.87 59.8773 118.906C56.1893 119.335 52.4975 119.722 48.8191 120.205C48.4401 120.276 48.0803 120.416 47.7052 120.499C47.1646 120.068 46.9107 119.4 46.6548 118.783C46.345 117.988 46.0411 117.119 46.2489 116.261C46.4182 116.041 46.6721 115.911 46.901 115.764C48.3074 114.952 49.6848 114.094 51.1373 113.367C53.2881 112.305 55.4717 111.301 57.5206 110.045C58.7961 109.256 60.0812 108.477 61.3451 107.669C59.8984 107.6 58.3093 107.309 57.3455 106.116C56.4201 106.199 55.4948 106.311 54.5675 106.328C54.4655 106.211 54.2635 105.978 54.1635 105.86C67.3167 104.891 80.4276 103.438 93.5269 101.924C98.5866 101.245 103.656 100.651 108.708 99.9101C117.552 98.6153 126.424 97.5072 135.261 96.1663C136.873 96.0278 138.141 94.912 139.535 94.2078C139.297 92.2417 139.202 90.2601 138.922 88.2998C138.217 88.2517 137.535 88.4248 136.867 88.6133C131.977 89.8831 127.071 91.0893 122.196 92.411C121.324 92.6572 120.412 92.8169 119.612 93.2575C115.916 95.339 112.221 97.4264 108.502 99.4676C108.256 99.6138 107.979 99.7061 107.69 99.6984C107.594 99.4156 107.673 99.2175 107.927 99.1059C111.403 97.1936 114.854 95.2332 118.323 93.3056C124.733 89.7888 131.067 86.1393 137.45 82.5764C139.137 81.549 141.028 80.7545 142.398 79.2866C142.854 78.8211 143.052 78.1054 142.737 77.5071ZM122.484 91.7703C127.819 90.3621 133.156 88.9423 138.464 87.4321C138.015 85.9258 137.713 84.2924 138.26 82.7688C133.017 85.7969 127.713 88.7211 122.484 91.7703ZM135.322 97.8054C133.183 99.1905 131.042 100.58 128.898 101.959C126.973 103.027 125.039 104.185 123.556 105.841C122.965 106.476 122.7 107.311 122.304 108.061C122.169 108.331 121.805 108.177 121.578 108.2C119.816 108.027 118.042 108.065 116.28 107.879C116.272 109.616 116.838 111.278 117.036 112.988C122.894 109.799 128.748 106.605 134.633 103.465C138.346 101.403 142.075 99.3733 145.817 97.3648C145.495 95.5468 145.191 93.7269 144.882 91.9069C141.798 94.0347 138.471 95.7777 135.322 97.8054ZM121.788 98.8212C113.41 99.9101 105.064 101.247 96.6686 102.205C103.335 103.061 110.045 103.594 116.698 104.552C117.063 104.739 116.798 105.368 116.407 105.197C109.046 104.189 101.647 103.49 94.2772 102.567C90.0698 102.996 85.8624 103.504 81.6608 104.002C85.3218 104.51 88.9809 105.022 92.6497 105.478C97.5073 106.159 102.369 106.807 107.236 107.403C107.392 106.63 108.058 105.968 108.883 106.024C110.893 106.024 112.842 106.622 114.824 106.909C117.136 107.434 119.524 107.326 121.863 107.652C122.213 106.611 122.619 105.549 123.431 104.773C124.86 103.333 126.592 102.205 128.406 101.307C130.699 99.9447 132.837 98.3325 135.128 96.9724C130.682 97.588 126.236 98.2132 121.788 98.8212ZM140.601 100.991C140.767 102.267 141.142 103.513 141.219 104.799C139.266 105.43 137.244 105.816 135.255 106.307C132.94 106.788 130.665 107.455 128.331 107.842C127.584 107.992 126.955 108.45 126.29 108.794C123.529 110.264 120.801 111.797 118.035 113.254C117.45 113.531 116.894 114.039 116.203 113.912C114.145 113.696 112.098 113.342 110.035 113.177C109.687 113.373 109.418 113.719 109 113.779C107.126 114.212 105.193 114.27 103.292 114.527C98.9868 114.939 94.687 115.42 90.3815 115.826C100.332 116.207 110.293 116.391 120.249 116.624C120.897 116.728 121.345 116.18 121.844 115.872C123.941 114.45 125.974 112.934 128.038 111.47C129.199 111.189 130.418 111.334 131.584 111.078C132.417 110.81 133.144 110.303 133.902 109.877C135.601 108.875 137.309 107.89 139.01 106.89C139.912 106.268 140.905 105.705 141.6 104.841C141.986 104.002 141.809 103.046 141.877 102.151C141.917 101.822 141.827 101.393 142.127 101.162C142.881 100.564 143.739 100.102 144.487 99.4907C144.787 99.2617 145.082 98.8885 145.501 99.1232C145.48 98.9789 145.436 98.6923 145.415 98.548C143.739 99.2136 142.246 100.258 140.601 100.991ZM142.965 101.801C142.371 102.884 142.89 104.212 142.471 105.331C141.355 106.424 140.062 107.35 138.704 108.125C136.621 109.298 134.595 110.578 132.473 111.68C131.109 112.438 129.41 111.77 128.04 112.465C125.874 114.102 123.631 115.637 121.394 117.174C121.099 117.442 120.703 117.361 120.343 117.346C120.339 117.3 120.334 117.207 120.33 117.161L120.101 117.3C112.384 117.173 104.672 116.932 96.9571 116.719C92.7247 116.557 88.4865 116.565 84.256 116.374C77.9074 117.003 71.5453 117.559 65.2178 118.363C63.9192 118.44 62.6283 118.64 61.3355 118.779C61.3759 119.019 61.5106 119.133 61.7395 119.118C63.2113 119.139 64.6811 119.169 66.1528 119.229C73.5326 119.487 80.9182 119.622 88.298 119.893C98.1768 120.197 108.056 120.462 117.935 120.78C118.402 120.828 118.852 120.687 119.247 120.443C126.219 116.676 133.264 113.044 140.278 109.356C142.077 108.469 143.785 107.413 145.593 106.549C145.305 104.475 145.23 102.374 144.887 100.308C144.218 100.762 143.471 101.153 142.965 101.801ZM137.336 102.848C134.914 104.187 132.461 105.468 130.037 106.799C133.487 105.955 136.954 105.172 140.388 104.268C140.261 103.321 140.049 102.388 139.893 101.447C139.022 101.878 138.171 102.349 137.336 102.848ZM61.9184 105.87C60.6641 105.92 59.4155 106.076 58.1574 106.093C58.9076 106.632 59.8176 106.947 60.7468 106.928C65.2582 107.419 69.7715 107.913 74.2848 108.39C79.66 108.929 85.0178 109.631 90.3969 110.139C99.081 111.147 107.761 112.188 116.438 113.269C116.032 111.449 115.618 109.612 115.639 107.738C113.904 107.473 112.182 107.122 110.451 106.836C109.745 106.734 109.004 106.592 108.308 106.813C107.763 106.972 107.802 107.63 107.667 108.073C98.5943 106.826 89.5138 105.633 80.4411 104.385C79.7966 104.302 79.1463 104.166 78.4941 104.268C72.9824 104.922 67.4398 105.299 61.9184 105.87ZM55.5063 112.038C52.6417 113.587 49.706 115.012 46.9549 116.761C47.1877 117.742 47.5744 118.687 48.0938 119.554C59.2366 118.219 70.3852 116.911 81.5607 115.859C85.8643 115.455 90.1545 114.92 94.4581 114.504C99.3023 114.064 104.143 113.523 108.971 112.981C107.99 112.759 106.978 112.771 105.986 112.644C101.828 112.124 97.6632 111.649 93.4981 111.184C89.8601 111.609 86.1952 111.726 82.5534 112.121C77.9709 112.525 73.4114 113.142 68.8692 113.864C64.4579 114.564 60.0158 115.124 55.5506 115.278C55.5256 115.178 55.4755 114.976 55.4505 114.876C57.5417 114.616 59.6599 114.552 61.753 114.285C66.9088 113.739 71.9974 112.704 77.1494 112.14C81.8685 111.57 86.6069 111.213 91.3453 110.891C81.6627 109.879 71.9878 108.754 62.3013 107.777C60.0023 109.117 57.8438 110.737 55.5063 112.038ZM131.405 115.447C129.933 116.549 128.348 117.488 126.892 118.606C126.311 118.664 125.782 118.3 125.264 118.083C124.031 118.712 122.838 119.416 121.586 120.004C121.711 120.928 121.863 121.857 121.815 122.794C121.709 123.006 121.424 123.008 121.222 123.058C115.28 123.623 109.349 124.312 103.41 124.926C105.997 125.187 108.602 125.228 111.19 125.497C111.317 125.803 111.265 126.259 110.818 126.13C107.161 125.913 103.504 125.674 99.8506 125.405C99.0079 125.316 98.1691 125.472 97.3342 125.551C91.5704 126.153 85.8047 126.747 80.0351 127.277C81.7743 127.288 83.4999 127.54 85.2372 127.604C88.5654 127.777 91.8898 128.04 95.2218 128.177C100.16 128.437 105.103 128.59 110.043 128.833C111.003 128.887 111.98 128.869 112.923 129.081C113.212 129.112 113.212 129.489 113.344 129.681C113.764 129.575 114.125 129.325 114.497 129.112C116.469 127.961 118.387 126.721 120.301 125.476C123.24 123.633 126.126 121.703 128.968 119.714C131.563 117.832 134.116 115.891 136.657 113.939C136.975 113.692 137.281 113.425 137.504 113.086C136.852 112.871 136.144 112.627 135.455 112.748C133.979 113.442 132.702 114.473 131.405 115.447ZM126.332 117.523C126.569 117.571 126.848 117.667 127.052 117.469C127.75 116.967 128.468 116.488 129.152 115.966C128.19 116.44 127.238 116.947 126.332 117.523Z" fill="#0F5A8B"/>
<path d="M180.895 126.095C181.521 125.739 182.234 125.499 182.96 125.487C183.452 125.505 184.045 125.699 184.197 126.23C184.279 126.769 183.762 127.109 183.316 127.248C183.173 127.105 183.033 126.963 182.898 126.822C183.044 126.63 183.164 126.42 183.254 126.197C182.542 126.141 181.854 126.316 181.23 126.649C180.963 126.844 180.57 126.278 180.895 126.095Z" fill="#0F5A8B"/>
<path d="M126.994 138.479C134.303 137.334 141.621 136.24 148.939 135.153C149.155 135.539 148.956 135.862 148.52 135.841C142.306 136.83 136.094 137.827 129.884 138.827C125.18 139.624 120.445 140.262 115.79 141.311C115.416 141.447 115.018 140.993 115.259 140.653C115.538 140.445 115.905 140.443 116.232 140.357C119.791 139.577 123.396 139.041 126.994 138.479Z" fill="#0F5A8B"/>
<path d="M183.599 150.158C184.153 150.035 184.722 150.13 185.278 150.187C187.887 150.512 190.521 150.549 193.145 150.493C193.564 150.536 194.116 150.214 194.414 150.647C194.613 150.999 194.305 151.463 193.914 151.476C191.279 151.507 188.631 151.472 186.013 151.136C185.332 151.034 184.639 150.955 183.997 150.705C183.783 150.605 183.462 150.439 183.599 150.158Z" fill="#0F5A8B"/>
<path d="M118.389 81.8377C119.751 81.0932 121.047 80.2332 122.396 79.4656C122.656 79.1867 122.84 79.5541 122.929 79.7503C119.77 81.9358 116.363 83.7423 112.896 85.3852C109.616 86.9532 106.268 88.3922 103.121 90.2198C101.407 91.1683 99.787 92.2764 98.1498 93.348C97.894 93.5654 97.6689 93.3768 97.5361 93.1325C100.48 90.8855 103.725 89.0559 107.053 87.4399C110.851 85.6142 114.733 83.9481 118.389 81.8377Z" fill="#0F5A8B"/>
<path d="M80.6913 85.5218C81.0049 85.2967 81.4743 85.3294 81.6821 85.6777C82.8133 87.1378 84.3601 88.2286 85.4162 89.7465C84.4601 90.7796 82.9076 90.7123 81.7417 91.3914C80.9722 90.9066 80.4028 90.1813 79.7294 89.583C79.158 89.0213 78.5078 88.5268 78.0307 87.8785C77.8922 87.4784 78.3346 87.2513 78.577 87.0263C79.2773 86.5184 79.9564 85.9758 80.6913 85.5218ZM80.926 86.2433C80.2027 86.6703 79.5909 87.2513 78.9137 87.7419C79.9256 88.6327 80.8529 89.6157 81.886 90.4834C82.8479 90.3602 83.7848 90.064 84.6698 89.6677C84.2235 89.3214 83.8176 88.9097 83.3154 88.6423C83.0134 89.004 82.7498 89.4464 82.2766 89.6061C82.0419 89.6965 81.6071 89.835 81.5667 89.4484C81.2262 88.423 81.2781 87.3225 81.0857 86.2721C81.0453 86.2644 80.9645 86.251 80.926 86.2433ZM81.8937 86.9224C81.9899 87.5592 81.8168 88.3056 82.2458 88.8481C82.4824 88.6615 82.719 88.471 82.9499 88.2767C82.6421 87.7919 82.2862 87.3398 81.8937 86.9224Z" fill="#0F5A8B"/>
<path d="M33.8942 107.163C34.1309 106.503 34.935 106.161 35.5891 106.382C36.2894 106.582 36.753 107.213 37.0282 107.855C37.7304 109.437 37.9247 111.174 38.1748 112.871C38.4075 114.329 38.4806 115.809 38.75 117.263C39.3541 115.593 40.0101 113.844 41.2991 112.573C41.5934 112.348 41.9724 112.386 42.3187 112.405C42.5111 112.873 42.6823 113.356 42.6842 113.867C42.7554 115.76 42.3033 117.634 41.6915 119.414C41.2125 120.791 40.3621 122.017 39.304 123.015C39.3637 123.069 39.4849 123.177 39.5464 123.229C39.6388 123.889 39.7581 124.543 39.9081 125.193C40.3006 124.208 40.466 123.048 41.3183 122.326C41.7569 121.882 42.5784 122.019 42.8804 122.555C43.3999 123.421 43.3306 124.485 43.2633 125.455C43.1806 126.415 42.892 127.338 42.6611 128.269C42.3033 129.522 41.9897 130.953 40.9066 131.796C40.997 132.657 41.149 133.51 41.2644 134.368C41.2548 134.77 41.5684 135.478 40.9643 135.549C40.4526 135.449 40.5815 134.781 40.4603 134.4C40.3083 133.133 40.0813 131.874 39.9832 130.603L39.9543 130.609C38.9982 130.493 38.2979 129.751 37.5245 129.247C36.5549 128.417 35.4391 127.496 35.2178 126.165C35.3025 125.458 35.8008 124.879 36.5087 124.747C37.765 124.762 38.6653 125.778 39.3483 126.715C39.2386 125.984 39.1136 125.255 38.9539 124.533C38.3768 124.508 37.8208 124.348 37.2975 124.108C35.643 123.385 34.3175 122.101 33.0978 120.803C32.4995 120.064 31.7819 119.302 31.6664 118.317C31.5683 117.371 32.5533 116.532 33.4691 116.857C34.2771 117.167 34.9158 117.802 35.4949 118.425C36.603 119.679 37.5938 121.038 38.7461 122.251C38.2094 119.591 37.7727 116.907 37.5149 114.206C37.3013 112.465 37.0897 110.709 36.5799 109.027C36.3644 108.413 36.147 107.74 35.6276 107.315C35.2813 107.049 34.531 107.184 34.5849 107.715C34.6445 109.173 35.3159 110.499 35.9008 111.807C36.3606 112.757 36.8204 113.721 37.4629 114.568C37.4918 114.747 37.5168 114.927 37.5418 115.11C37.2859 115.097 37.032 115.081 36.7781 115.068C35.6757 113.248 34.6657 111.355 34.0077 109.325C33.8154 108.629 33.6615 107.867 33.8942 107.163ZM40.9951 113.892C40.0293 115.299 39.5965 116.971 38.877 118.498C39.0309 119.6 39.3079 120.684 39.4079 121.796C40.6199 120.464 41.1721 118.696 41.6049 116.986C41.8993 115.649 42.1378 114.262 41.9243 112.896C41.5011 113.102 41.2567 113.521 40.9951 113.892ZM32.4725 118.104C32.5379 119.031 33.3094 119.67 33.8827 120.326C35.2024 121.924 36.8993 123.285 38.925 123.848C38.902 123.741 38.8577 123.529 38.8366 123.423C37.7804 122.58 37.0493 121.426 36.1528 120.432C35.6911 119.926 35.2313 119.418 34.7811 118.902C34.3964 118.521 34.0462 118.094 33.5864 117.804C33.2305 117.515 32.6534 117.698 32.4725 118.104ZM41.4453 123.227C41.1567 123.76 41.0316 124.362 40.8643 124.939C40.6122 125.249 40.3621 125.566 40.0274 125.793C40.2506 127.502 40.5834 129.195 40.8797 130.891C41.7454 128.775 42.4726 126.549 42.4803 124.237C42.438 123.746 42.4187 123.206 42.084 122.815C41.7742 122.68 41.5992 123.021 41.4453 123.227ZM36.1413 125.787C36.0374 126.251 36.1855 126.707 36.4702 127.076C37.3552 128.281 38.5768 129.185 39.8389 129.962C39.8177 128.287 38.7096 126.88 37.4283 125.913C37.0551 125.605 36.5703 125.657 36.1413 125.787Z" fill="#0F5A8B"/>
<path d="M168.779 118.179C169.133 117.592 169.739 117.009 170.484 117.127C171.315 117.35 171.407 118.371 171.392 119.087C171.288 120.803 170.943 122.565 170.101 124.079C169.941 124.031 169.622 123.933 169.462 123.883C169.77 122.667 170.332 121.519 170.472 120.257C170.532 119.547 170.745 118.766 170.42 118.094C170.199 117.775 169.839 118.106 169.714 118.331C168.777 119.808 168.246 121.494 167.729 123.15C167.625 123.373 167.635 123.698 167.384 123.821C167.234 123.785 166.934 123.714 166.784 123.677C166.803 123.425 166.813 123.175 166.894 122.936C167.417 121.313 167.912 119.658 168.779 118.179Z" fill="#0F5A8B"/>
<path d="M147.654 117.556C147.898 117.498 148.144 117.442 148.391 117.386C154.279 122.096 160.105 126.88 165.949 131.644C167.635 133.044 169.391 134.368 170.978 135.88C171.671 136.503 171.908 137.552 171.402 138.367C171.267 138.194 171.132 138.021 171.001 137.85C171.148 137.502 171.288 137.088 171.067 136.74C170.619 136.038 169.866 135.62 169.235 135.105C165.832 132.425 162.504 129.653 159.135 126.928C155.328 123.779 151.436 120.734 147.654 117.556Z" fill="#0F5A8B"/>
<path d="M136.879 127.111C137.304 127.109 138.195 126.688 138.202 127.375C137.698 127.777 136.971 127.682 136.371 127.842C124.349 129.649 112.363 131.68 100.341 133.492C97.3325 133.943 94.337 134.466 91.3628 135.101C90.8549 135.366 90.4894 134.445 91.0338 134.325C94.1216 133.575 97.2747 133.125 100.414 132.636C112.556 130.711 124.709 128.848 136.879 127.111Z" fill="#0F5A8B"/>
<path d="M140.745 130.378C141.157 130.314 141.567 130.222 141.988 130.218C142.356 130.091 142.373 130.876 141.973 130.809C136.145 131.794 130.299 132.686 124.477 133.717C114.987 135.382 105.493 137.044 95.9875 138.592C95.4873 138.571 95.4776 137.736 96.0086 137.754C98.7539 137.205 101.532 136.832 104.291 136.351C116.426 134.262 128.562 132.169 140.745 130.378Z" fill="#0F5A8B"/>
<path d="M159.11 151.43C159.938 151.374 160.765 151.269 161.596 151.261C161.973 151.403 161.921 152.013 161.507 152.044C156.032 152.438 150.559 152.937 145.07 153.102C144.339 153.058 143.547 153.25 142.856 152.964C142.866 152.864 142.883 152.665 142.893 152.567C148.302 152.259 153.708 151.871 159.11 151.43Z" fill="#0F5A8B"/>
<path d="M54.8483 156.576C56.3778 156.448 57.9092 156.234 59.4463 156.257C59.9869 156.28 59.8695 157.271 59.3501 157.213C57.3339 157.315 55.3178 157.446 53.2977 157.494C52.8976 157.479 52.3897 157.561 52.1357 157.161C52.9303 156.603 53.9364 156.717 54.8483 156.576Z" fill="#0F5A8B"/>
<path d="M169.184 157.685C170.238 157.673 171.294 157.583 172.35 157.604C172.675 157.712 172.525 158.244 172.191 158.194C168.932 158.525 165.651 158.614 162.381 158.785C160.473 158.866 158.56 158.881 156.652 158.839C156.048 158.787 155.971 157.873 156.613 157.813C160.803 157.852 164.994 157.8 169.184 157.685Z" fill="#0F5A8B"/>
<path d="M29.2883 131.111C29.8731 130.168 31.2737 129.953 32.1625 130.582C33.1802 131.292 33.9074 132.321 34.7039 133.254C35.1463 133.825 35.5715 134.41 36.014 134.986C36.2295 135.266 36.4315 135.563 36.6258 135.861C36.4834 136.103 36.1083 136.436 35.8601 136.136C34.7635 134.797 33.7977 133.346 32.603 132.088C32.1875 131.661 31.7316 131.217 31.139 131.063C30.7119 131.015 30.2117 131.186 29.9847 131.571C29.9789 131.948 30.1656 132.292 30.331 132.623C31.0371 133.864 32.0317 134.905 32.8685 136.051C33.1456 136.334 32.6261 136.511 32.4838 136.682C32.1375 136.43 31.8547 136.111 31.595 135.774C30.8331 134.799 30.0116 133.856 29.4153 132.765C29.1613 132.263 28.9843 131.63 29.2883 131.111Z" fill="#0F5A8B"/>
<path d="M22.5089 133.906C23.7979 133.704 25.1138 134.016 26.37 134.306C27.0607 134.508 27.8033 134.676 28.3747 135.143C28.669 135.353 28.2496 135.976 27.9437 135.749C26.5086 135.007 24.8983 134.722 23.3035 134.58C22.9225 134.524 22.1684 134.472 22.5089 133.906Z" fill="#0F5A8B"/>
<path d="M49.7732 137.742C52.1664 137.577 54.5731 137.594 56.9702 137.515C57.0337 137.617 57.1607 137.823 57.2222 137.925C57.1568 138.036 57.0222 138.258 56.9568 138.367C54.7117 138.319 52.4685 138.44 50.2253 138.379C49.8155 138.448 49.5462 138.1 49.7732 137.742Z" fill="#0F5A8B"/>
<path d="M182.747 138.002C182.56 137.609 183.002 137.384 183.326 137.45C183.864 137.49 184.499 137.682 184.736 138.223C185.057 138.91 184.776 139.712 184.32 140.264C183.414 141.361 182.087 141.959 180.838 142.575C178.274 143.748 175.538 144.522 172.77 145.043C171.606 145.253 170.434 145.486 169.245 145.484C169.257 145.378 169.28 145.164 169.291 145.058C170.538 144.695 171.858 144.643 173.122 144.331C175.971 143.725 178.805 142.917 181.409 141.59C182.289 141.101 183.204 140.591 183.834 139.781C184.111 139.431 184.32 138.946 184.109 138.512C183.81 138.048 183.206 138.137 182.747 138.002Z" fill="#0F5A8B"/>
<path d="M105.029 138.625C105.335 138.512 105.658 138.466 105.983 138.454C106.743 139.572 107.896 140.324 108.833 141.274C109.067 141.509 109.146 141.909 108.9 142.169C108.577 142.456 108.148 142.571 107.753 142.725C106.234 143.254 104.706 143.768 103.221 144.389C102.842 144.556 102.394 144.472 102.113 144.168C101.262 143.396 100.412 142.623 99.4867 141.942C99.2135 141.715 98.7422 141.373 99.0076 140.974C99.2558 140.674 99.6387 140.545 99.9926 140.413C101.672 139.822 103.346 139.208 105.029 138.625ZM100.025 141.244C100.899 142.125 101.972 142.796 102.769 143.762C104.541 143.035 106.382 142.477 108.15 141.744C107.407 141.08 106.67 140.411 105.96 139.714C105.477 140.311 105.189 141.034 104.762 141.669C104.366 142.246 104.058 143.014 103.3 143.181C103.227 142.867 103.225 142.538 103.379 142.252C103.786 141.334 104.327 140.482 104.791 139.593C103.202 140.141 101.62 140.713 100.025 141.244Z" fill="#0F5A8B"/>
<path d="M117.188 157.69C122.442 157.331 127.69 156.867 132.94 156.469C133.044 156.482 133.252 156.511 133.356 156.525C133.358 156.688 133.36 157.015 133.36 157.179C128.111 157.792 122.831 158.169 117.554 158.471C117.082 158.443 116.186 158.685 116.163 157.969C116.455 157.744 116.834 157.725 117.188 157.69Z" fill="#0F5A8B"/>
<path d="M34.3537 148.339C34.396 147.7 35.1116 147.255 35.7061 147.454C36.1909 147.623 36.5295 148.033 36.8719 148.398C37.68 149.312 38.5034 150.216 39.3575 151.088C39.6865 151.384 39.2633 151.655 39.0516 151.842C37.7665 150.942 36.9527 149.547 35.7946 148.506C35.6099 148.352 35.3964 148.26 35.152 148.233C35.0655 149.887 36.5622 151.001 37.1913 152.413C37.0451 152.581 36.8373 153.035 36.5584 152.781C36.0736 152.336 35.7869 151.726 35.4233 151.188C34.9096 150.32 34.1824 149.41 34.3537 148.339Z" fill="#0F5A8B"/>
<path d="M28.7729 150.659C28.948 150.495 29.1038 150.182 29.3982 150.274C30.5737 150.52 31.7087 150.949 32.7572 151.534C33.1997 151.792 33.7191 151.982 34.0346 152.408C34.2424 152.694 33.8403 152.898 33.6999 153.092C32.6418 152.45 31.5817 151.79 30.3947 151.411C29.8426 151.192 29.1673 151.155 28.7729 150.659Z" fill="#0F5A8B"/>
</g>
<defs>
<clipPath id="clip0_1_37110">
<rect width="197" height="197" fill="white"/>
</clipPath>
</defs>
</svg>
