<svg width="146" height="39" viewBox="0 0 146 39" fill="none" xmlns="http://www.w3.org/2000/svg">
<g clip-path="url(#clip0_80_1166)">
<path d="M22.9774 32.11C22.9774 32.11 21.0383 34.19 20.4351 36.8334L22.9774 32.11Z" fill="white"/>
<path d="M22.9774 32.11C22.9774 32.11 21.0383 34.19 20.4351 36.8334" stroke="#1994E6" stroke-width="2" stroke-miterlimit="10"/>
<path d="M23.2144 32.1967C23.2144 32.1967 25.1534 34.2767 25.7567 36.92L23.2144 32.1967Z" fill="white"/>
<path d="M23.2144 32.1967C23.2144 32.1967 25.1534 34.2767 25.7567 36.92" stroke="#1994E6" stroke-width="2" stroke-miterlimit="10"/>
<path d="M45.6861 7.25835L23.0206 2.05835L0.355089 7.25835C-0.355901 7.43168 -0.291265 9.36002 0.333544 9.53335L8.39143 11.3534L8.41297 17.4417C8.41297 17.7667 8.5207 18.0917 8.73615 18.3517C8.9516 18.6334 9.1886 18.8717 9.40405 19.0884C12.0972 21.6884 20.2843 21.4284 20.2843 21.4284H23.0421H25.7784C25.7784 21.4284 33.9655 21.6884 36.6586 19.0884C36.8741 18.8717 37.1111 18.6334 37.3265 18.3517C37.542 18.0917 37.6282 17.7667 37.6497 17.4417L37.6713 11.3534L41.5494 10.4867V18.915C40.623 19.2834 39.9335 20.54 39.9335 22.0567V23.7467L23.2576 25.6534L3.6084 23.4C3.26368 23.3567 2.91896 23.5517 2.76814 23.855C2.27261 24.8084 1.62625 26.4767 1.62625 28.6C1.6478 30.7017 2.29415 32.3267 2.78969 33.2584C2.94051 33.54 3.24214 33.7134 3.56531 33.67L23.2576 32.1967L42.9498 33.67C43.273 33.6917 43.5746 33.54 43.7255 33.2584C44.221 32.3267 44.8673 30.7017 44.8889 28.6C44.8889 27.17 44.6088 25.935 44.2641 25.0034V22.035C44.2641 20.4534 43.51 19.1317 42.4974 18.85V10.2484L45.7292 9.51168C46.3109 9.36002 46.3755 7.43168 45.6861 7.25835Z" fill="#1994E6"/>
<path d="M63.5896 16.1417H65.9596V17.6367C65.9596 18.1567 65.8088 18.655 65.5072 19.0667C65.2055 19.4783 64.71 19.8467 63.9344 19.8467C62.6632 19.8467 60.1855 19.8467 58.979 19.8467C58.3111 19.8467 57.6647 19.6733 57.1046 19.3267C56.6306 19.0233 56.1781 18.59 56.1781 18.005C56.1781 16.705 56.1781 11.18 56.1781 11.18C56.1781 11.18 55.9842 8.45 58.2034 8.45C60.4225 8.45 63.5681 8.45 63.5681 8.45C65.0763 8.45 65.9596 8.92666 65.9596 10.6167V12.0033L63.5035 11.9817L63.1156 10.8983L58.742 10.9417L58.7851 17.29L63.3311 17.2467L63.5896 16.1417Z" fill="#1994E6"/>
<path d="M78.6069 17.2467C78.6069 17.2467 78.6069 13.2167 78.6069 10.8767C78.6069 8.53666 76.7971 8.45 76.7971 8.45H70.1612C67.8989 8.45 68.0067 10.6167 68.0067 10.6167C68.0067 10.6167 68.0067 14.2567 68.0067 17.2467C68.0067 20.2367 71.0876 19.8467 71.0876 19.8467C71.0876 19.8467 73.0267 19.825 75.6767 19.8467C78.3268 19.89 78.6069 17.2467 78.6069 17.2467ZM75.6767 17.2467H71.0876V10.6167H75.6767V17.2467Z" fill="#1994E6"/>
<path d="M80.8042 8.47166H83.3465V17.2683H89.53V19.8683L82.7217 19.89C82.7217 19.89 80.8042 19.9767 80.8042 17.2683C80.8042 14.56 80.8042 8.47166 80.8042 8.47166Z" fill="#1994E6"/>
<path d="M92.0078 8.45H94.5501V17.2467H100.734V19.8467L93.9253 19.8683C93.9253 19.8683 92.0078 19.955 92.0078 17.2467C92.0078 14.5383 92.0078 8.45 92.0078 8.45Z" fill="#1994E6"/>
<path d="M102.35 22.9667H109.395V24.6133H104.246L104.267 26.13H108.942V28.0583H104.267V29.6183H109.395V31.655L103.922 31.6767C103.922 31.6767 102.35 31.2433 102.35 29.9C102.35 28.5567 102.35 22.9667 102.35 22.9667Z" fill="#1994E6"/>
<path d="M119.543 12.74V15.2533H122.43V17.2467H117.388V10.66H122.236L122.71 11.635L125.252 11.6567V10.9417C125.252 10.9417 125.058 8.47166 122.516 8.47166C119.974 8.47166 117.388 8.47166 117.388 8.47166C117.388 8.47166 114.415 8.14666 114.415 10.8767C114.415 13.6067 114.415 17.2683 114.415 17.2683C114.415 17.2683 114.415 19.8467 117.388 19.8467C120.361 19.8467 122.171 19.8683 122.171 19.8683C122.171 19.8683 125.274 20.3017 125.274 17.2683C125.274 14.235 125.274 12.74 125.274 12.74H119.543Z" fill="#1994E6"/>
<path d="M127.256 8.45H136.477V10.6167H129.712L129.755 12.61H135.874V15.1233H129.755V17.16H136.477V19.825L129.324 19.8467C129.324 19.8467 127.256 19.2833 127.256 17.5283C127.256 15.7733 127.256 8.45 127.256 8.45Z" fill="#1994E6"/>
<path d="M87.0308 29.6183C87.0308 29.6183 87.0308 26.585 87.0308 24.83C87.0308 23.075 85.4364 22.945 85.4364 22.945H80.7611C79.0591 22.945 79.1453 24.57 79.1453 24.57C79.1453 24.57 79.1453 27.3 79.1453 29.5533C79.1453 31.8067 81.4506 31.5033 81.4506 31.5033C81.4506 31.5033 82.9157 31.4817 84.8978 31.5033C86.923 31.5467 87.0308 29.6183 87.0308 29.6183ZM84.9194 29.575H81.4721V24.5917H84.9194V29.575Z" fill="#1994E6"/>
<path d="M130.337 22.9667H132.298V29.7483H137.059V31.7417L131.824 31.7633C131.824 31.7633 130.358 31.8283 130.358 29.7483C130.358 27.6683 130.337 22.9667 130.337 22.9667Z" fill="#1994E6"/>
<path d="M102.78 8.45H112.002V10.6167H105.236L105.28 12.61H111.398V15.1233H105.28V17.16H112.002V19.825L104.849 19.8683C104.849 19.8683 102.78 19.305 102.78 17.55C102.78 15.795 102.78 8.45 102.78 8.45Z" fill="#1994E6"/>
<path d="M77.7451 22.9667V24.5917H72.6174V26.4767H77.2281V28.0367H72.6174V31.5467H70.6353V24.2017C70.6353 24.2017 70.6783 22.9667 72.4235 22.9667C74.1687 22.9667 77.7451 22.9667 77.7451 22.9667Z" fill="#1994E6"/>
<path d="M93.0205 22.9667V31.525H95.0888V26.8667L98.1482 31.525H100.152V22.9667H98.1913V27.625L94.9811 22.9667H93.0205Z" fill="#1994E6"/>
<path d="M59.7548 22.9667V24.5917H58.7638V30.0733H59.7548V31.525H55.7905V30.0733H56.7385V24.5917H55.7905V22.9233L59.7548 22.9667Z" fill="#1994E6"/>
<path d="M61.2632 23.0317V31.59H63.3315V26.9317L66.4125 31.59H68.3946V23.0317H66.434V27.69L63.2238 23.0317H61.2632Z" fill="#1994E6"/>
<path d="M116.591 22.9667H111.398V31.6767H113.445L113.467 29.12C113.467 29.12 115.729 29.1417 117.28 29.12C118.508 29.0983 118.508 27.1917 118.508 27.1917C118.508 27.1917 118.508 25.74 118.508 24.4617C118.508 23.8117 118.121 23.4433 117.711 23.2483C117.366 23.0317 116.979 22.9667 116.591 22.9667ZM116.569 27.0183H113.424V24.57H116.569V27.0183Z" fill="#1994E6"/>
<path d="M126.265 22.9667C124.563 22.9667 122.214 22.9667 122.214 22.9667C122.214 22.9667 120.577 23.0317 120.577 24.31V31.5467H122.731V29.12H126.028V31.5467H128.247V24.31C128.247 24.31 127.967 22.9667 126.265 22.9667ZM126.028 27.0183H122.774V24.57H126.028V27.0183Z" fill="#1994E6"/>
</g>
<defs>
<clipPath id="clip0_80_1166">
<rect width="146" height="39" fill="white"/>
</clipPath>
</defs>
</svg>
