<svg width="13" height="23" viewBox="0 0 13 23" fill="none" xmlns="http://www.w3.org/2000/svg">
<path d="M12.5578 12.3074L2.56362 22.1023C2.28199 22.3783 1.90001 22.5333 1.50173 22.5333C1.10345 22.5333 0.721476 22.3783 0.439847 22.1023C0.158217 21.8262 2.96745e-09 21.4519 0 21.0616C-2.96745e-09 20.6712 0.158217 20.2969 0.439847 20.0208L9.37342 11.2679L0.442346 2.51249C0.302897 2.37582 0.19228 2.21357 0.116811 2.03501C0.0413417 1.85644 0.00249813 1.66506 0.00249813 1.47178C0.00249813 1.2785 0.0413417 1.08712 0.116811 0.908555C0.19228 0.72999 0.302897 0.567743 0.442346 0.431075C0.581794 0.294407 0.747344 0.185997 0.929542 0.112033C1.11174 0.0380689 1.30702 -1.44003e-09 1.50423 0C1.70144 1.44003e-09 1.89672 0.0380689 2.07892 0.112033C2.26112 0.185997 2.42667 0.294407 2.56611 0.431075L12.5603 10.226C12.6999 10.3626 12.8106 10.5249 12.8861 10.7036C12.9615 10.8823 13.0002 11.0738 13 11.2672C12.9998 11.4605 12.9606 11.652 12.8847 11.8305C12.8088 12.009 12.6977 12.171 12.5578 12.3074Z" fill="#F9FAFB"/>
</svg>
