<svg width="99" height="74" viewBox="0 0 99 74" fill="none" xmlns="http://www.w3.org/2000/svg">
<g opacity="0.1" clip-path="url(#clip0_1_37605)">
<path d="M11.1997 66.7057C10.6551 66.4239 10.1596 66.0689 9.72636 65.6493C9.56557 65.493 9.41858 65.3247 9.28404 65.1492C8.33788 63.8987 7.13463 61.2897 9.68127 57.8633C9.72316 57.8065 9.76371 57.7545 9.79938 57.7012C9.81276 57.6812 9.82613 57.6613 9.84128 57.6444C10.4662 56.7568 11.1057 55.9302 11.7273 55.1303C12.1088 54.6405 12.4675 54.1761 12.812 53.7159C13.0188 53.4413 13.2364 53.1279 13.5083 52.7217C13.5141 52.7102 13.6407 52.5269 13.6974 52.4452C13.7749 52.3351 13.8538 52.2201 13.8891 52.1589C14.4252 51.2899 14.9973 50.5553 15.5018 49.9047C15.6234 49.7487 15.7451 49.5927 15.8636 49.4385L15.8921 49.4016C16.1096 49.1168 16.3168 48.8502 16.4332 48.6564C16.5117 48.5335 16.5813 48.4239 16.6499 48.3271C16.6728 48.2445 16.6988 48.16 16.7261 48.0707C17.1135 46.8507 17.9584 45.7544 19.1039 44.9991C19.2668 44.8929 19.4358 44.783 19.6017 44.675C19.9461 44.4517 20.2717 44.2392 20.5765 44.0264C20.5889 44.0193 20.988 43.7398 20.988 43.7398C21.364 43.4779 21.7555 43.2069 22.1821 42.932C22.7978 42.5316 23.4598 42.0963 24.0503 41.6452C24.6813 41.142 25.4285 40.5595 26.2431 40.0075C26.5697 39.7822 26.8877 39.5782 27.1671 39.4005L27.3673 39.2727C27.6137 39.11 27.8874 38.9153 28.2144 38.6693C28.6181 38.3546 29.0898 37.9924 29.5952 37.6311C30.1287 37.2537 30.6336 36.9418 31.0672 36.6792L31.3844 36.4879C31.6984 36.2984 31.9938 36.1197 32.262 35.9445C32.5458 35.7602 32.852 35.5426 33.2266 35.2569C34.2649 34.4451 35.3934 33.5812 36.6128 32.7669C37.0759 32.4546 37.5417 32.1612 37.9918 31.8768C38.684 31.4363 39.3406 31.0205 39.9053 30.5965L40.167 30.3882C40.8692 29.8358 41.5897 29.2646 42.391 28.704C42.8101 28.4089 43.2292 28.1425 43.5953 27.9066L43.7986 27.777C44.1167 27.5729 44.4397 27.3415 44.8597 27.0336C45.8649 26.294 46.7409 25.6903 47.6084 25.1364C47.8148 25.0049 48.0336 24.8663 48.2511 24.7326C48.4687 24.5988 48.6862 24.4651 48.9015 24.3203C49.1324 24.1666 49.4105 23.9652 49.7402 23.7095C50.5253 23.0847 51.385 22.4168 52.3296 21.7735C52.6174 21.5747 52.9244 21.3729 53.2344 21.1694C53.3724 21.0775 53.6669 20.883 53.6731 20.8794C53.9195 20.7167 54.1976 20.5153 54.4895 20.3019L54.7614 20.1041C55.654 19.4499 56.5144 18.8551 57.3801 18.2981C57.6346 18.1349 57.9001 17.9693 58.1657 17.8037C58.3196 17.7108 58.4748 17.613 58.627 17.517C58.877 17.3604 59.1564 17.1541 59.4955 16.893C60.2716 16.2816 61.1946 15.565 62.1893 14.9008L62.6186 14.6162C62.8727 14.445 63.1316 14.2751 63.3838 14.1009C64.2087 13.5307 65.0245 12.8801 66.0171 11.9966C66.3634 11.6905 67.0498 11.0819 68.1016 10.7033C68.1109 10.6979 68.122 10.6956 68.1331 10.6933C68.1914 10.6719 68.2545 10.6518 68.3145 10.6335C68.7783 10.2432 69.311 9.82131 69.9308 9.34909C70.4506 8.95509 70.9519 8.63706 71.4181 8.35158C71.6681 8.195 71.9216 8.04453 72.18 7.89534C72.3513 7.79648 73.2609 7.25089 73.2702 7.2455C74.1091 6.7571 75.0155 6.24194 76.0505 5.81999C76.9988 5.42768 77.9165 5.1837 78.7657 4.97926C78.7719 4.97567 78.7848 4.9764 78.791 4.9728C79.4598 4.81537 80.2157 4.63623 81.0438 4.51748C83.0585 4.23226 85.0827 4.54592 86.7542 5.40626C88.2954 6.19894 89.4872 7.42198 90.199 8.94255C90.8014 10.216 91.047 11.7199 90.8976 13.2803C90.7905 14.3386 90.503 15.3866 90.0107 16.5039C89.2722 18.1799 88.1343 19.7393 86.5363 21.2785C86.1775 21.6205 85.8432 21.9115 85.5472 22.1681C85.4261 22.2748 85.3033 22.3784 85.1791 22.4868C84.9814 22.6622 84.8021 22.8188 84.6244 22.9786C84.502 23.0901 84.3778 23.1985 84.2554 23.31C84.1882 23.3734 84.1161 23.4354 84.0471 23.4957C84.0471 23.4957 83.9567 23.5764 83.9153 23.6126C83.4675 24.0018 82.9807 24.3809 82.4348 24.7655C82.3409 24.8401 82.2283 24.9255 82.0904 25.0174C82.0223 25.0649 81.9524 25.1093 81.8808 25.1506C81.8341 25.1776 81.791 25.2107 81.7443 25.2376C81.5846 25.3421 81.4249 25.4465 81.2585 25.5467C80.8649 25.778 79.6633 26.386 79.36 26.5366C79.3289 26.5546 79.2929 26.5713 79.26 26.5862C79.2524 26.5946 79.2435 26.6079 79.2359 26.6164C78.5445 27.4607 77.7573 27.8948 77.377 28.1062C77.3708 28.1098 77.2476 28.1768 77.2476 28.1768C76.2309 28.7311 75.353 29.2094 74.6352 29.7708C74.3686 29.9778 74.1118 30.1873 73.8519 30.3987C73.6383 30.5751 73.4198 30.7502 73.2044 30.9236C72.8119 31.236 72.4367 31.5138 72.0741 31.7844C71.8627 31.9432 71.6465 32.1008 71.4369 32.2626L70.918 32.6724C70.5054 33.0005 70.0942 33.3236 69.6813 33.6437C69.2234 33.9939 68.7825 34.3015 68.3958 34.5737C68.1266 34.7618 67.8682 34.9396 67.6399 35.1123C67.2736 35.4054 66.8921 35.7441 66.4924 36.1015C65.9653 36.5691 65.42 37.0554 64.8023 37.5387C64.2848 37.9436 63.7919 38.2691 63.3612 38.5585C63.2264 38.6486 63.0916 38.7387 62.9599 38.827C62.4225 39.1903 61.9696 39.5131 61.5642 39.8247C61.3488 39.9981 61.1383 40.1727 60.9277 40.3474C60.5819 40.6328 60.2254 40.9284 59.8405 41.2324C59.4431 41.5435 59.0493 41.8321 58.6679 42.1135C58.4241 42.2951 58.1785 42.4737 57.9364 42.6584C57.7086 42.8389 57.4874 43.0238 57.2613 43.2074C56.9061 43.4982 56.542 43.8024 56.1349 44.1109C55.8171 44.3515 55.5083 44.5788 55.1982 44.811C54.8787 45.0485 54.5575 45.283 54.2415 45.5267C54.0399 45.688 53.8418 45.8554 53.6451 46.018C53.4177 46.2065 53.1934 46.3932 52.961 46.5804C52.3794 47.0469 51.8112 47.4648 51.2768 47.855C51.0699 48.0071 50.8585 48.1659 50.6458 48.3295C50.3543 48.5509 50.0597 48.7741 49.763 48.9863L49.3505 49.2857C49.0337 49.5135 48.7356 49.7305 48.4548 49.9416C48.1286 50.2035 47.7925 50.4914 47.4382 50.7981C46.872 51.2842 46.2876 51.7891 45.6228 52.2913C45.2664 52.5584 44.9429 52.7818 44.6337 53.0012C44.4001 53.1647 44.1679 53.3232 43.9396 53.4959C43.6788 53.6913 43.4128 53.8776 43.1516 54.0652C42.8949 54.2461 42.6506 54.4198 42.4317 54.587C42.053 54.8873 41.6572 55.2301 41.2384 55.5904C40.8013 55.9693 40.3504 56.3603 39.8564 56.7558C39.4025 57.12 38.8961 57.494 38.3186 57.8887C37.6668 58.3344 37.1476 58.7077 36.7253 59.0332C36.4787 59.2245 36.2371 59.4171 35.9941 59.6146C35.4832 60.0239 34.9536 60.444 34.3903 60.8632C33.9564 61.1831 33.5849 61.467 33.2644 61.7173C33.252 61.7245 33.2413 61.7348 33.2337 61.7432C33.0842 61.8581 32.9378 61.9712 32.7976 62.0808L32.7545 62.1139C32.4496 62.3552 32.1942 62.5599 31.9352 62.7584C31.0727 63.436 30.0324 63.8488 28.9322 63.9491C28.9082 63.9506 28.8842 63.9522 28.8602 63.9538C28.7532 63.9626 28.6426 63.9652 28.5338 63.9708C28.0661 64.1387 27.6252 64.2953 27.2211 64.451C26.0811 64.9499 24.8348 65.3509 23.3137 65.7146C23.1048 65.7699 22.9253 65.8041 22.792 65.832L22.7143 65.8483C22.1704 65.9704 21.6736 66.0735 21.2022 66.1701L21.0626 66.2016C21.0262 66.2104 20.9849 66.2179 20.9467 66.2237C20.7258 66.2654 20.5019 66.3089 20.2797 66.3555L20.2575 66.3602C20.0464 66.4045 19.6513 66.5182 19.2705 66.6279C17.1683 67.229 13.9897 68.1372 11.221 66.7138L11.1997 66.7057Z" fill="white"/>
<path d="M85.8581 14.761C86.1185 14.1696 86.3218 13.5582 86.387 12.9161C86.4528 12.2248 86.384 11.509 86.0873 10.8799C85.3123 9.22839 83.333 8.705 81.6146 8.94981C80.9904 9.04067 80.3723 9.1852 79.759 9.33098C79.0698 9.49614 78.3783 9.67895 77.719 9.95343C76.9481 10.2719 76.2254 10.681 75.5079 11.0993C75.1485 11.3109 74.7896 11.5304 74.4302 11.742C74.1998 11.875 73.9712 12.0111 73.7492 12.1515C73.3684 12.3836 72.9943 12.62 72.6365 12.8919C72.4207 13.0573 70.1106 14.8729 70.247 15.0229C70.0902 14.852 69.8132 14.8323 69.5878 14.9093C69.3611 14.9912 69.1804 15.1527 69.001 15.3094C67.9945 16.2049 67.0154 17.0111 65.912 17.7748C65.5018 18.0565 65.0863 18.3291 64.6757 18.6029C63.8344 19.1662 63.0374 19.7774 62.2462 20.4058C61.8439 20.7156 61.4349 21.0212 61.0048 21.2899C60.5995 21.5443 60.189 21.7895 59.7904 22.0482C58.9697 22.5752 58.1728 23.1291 57.3884 23.7046C56.9697 24.0076 56.5563 24.3197 56.127 24.6043C55.6977 24.8889 55.2666 25.1705 54.8439 25.4594C54.0356 26.0078 53.2684 26.6059 52.5065 27.2133C52.203 27.4497 51.794 27.7553 51.3709 28.0363C50.923 28.3317 50.4608 28.6026 50.0124 28.89C49.1512 29.4404 48.3223 30.0251 47.4991 30.6269C47.0729 30.9384 46.6511 31.2432 46.2089 31.5271C45.7898 31.7935 45.3708 32.0599 44.9624 32.3447C44.1673 32.9018 43.4134 33.5086 42.6511 34.1079C41.5177 34.9706 40.2794 35.6732 39.1023 36.4672C38.0239 37.1878 36.9924 37.9753 35.9742 38.7714C35.5594 39.0884 35.1363 39.3981 34.6941 39.682C34.2613 39.9604 33.8196 40.2236 33.3797 40.4899C32.9802 40.7327 32.5826 40.9787 32.2021 41.2473C31.771 41.5575 31.3531 41.8763 30.9308 42.2018C30.5606 42.4809 30.1882 42.749 29.7989 43.0023C29.4546 43.2256 29.1037 43.4446 28.7646 43.6771C28.0911 44.1354 27.4485 44.633 26.8112 45.1397C26.0992 45.6897 25.3536 46.1814 24.6013 46.6688C24.108 46.9863 23.6319 47.3265 23.1505 47.6575C22.6184 48.0301 22.1015 48.3571 21.5636 48.7125C21.3265 48.8699 21.1154 49.0938 21.0303 49.3635C20.9779 49.5244 20.9713 49.6998 20.9286 49.8632C20.8246 50.2581 20.5022 50.5913 20.2876 50.9316C20.0397 51.3361 19.7424 51.7201 19.4514 52.1004C18.8663 52.8629 18.2528 53.6051 17.7493 54.4226C17.6003 54.6679 17.4283 54.9019 17.2677 55.1416C17.0002 55.5411 16.7247 55.9411 16.4341 56.3294C15.4804 57.611 14.4566 58.8432 13.5396 60.1526C13.0858 60.8189 12.2875 61.5861 12.9128 62.4175C14.3006 63.7642 17.6698 62.3091 19.392 61.9558C19.6462 61.9071 19.9017 61.8535 20.1576 61.8079C20.21 61.798 20.2575 61.7869 20.3082 61.774C20.8067 61.674 21.3035 61.5709 21.795 61.4587C21.9505 61.4261 22.1047 61.3983 22.2518 61.3583C23.3658 61.0949 24.464 60.7753 25.5204 60.3042C26.3113 59.9987 27.1936 59.6935 28.0387 59.3812C28.1988 59.4644 28.375 59.4892 28.57 59.4746C28.7792 59.4559 28.9837 59.3787 29.1577 59.2415C29.4105 59.0465 29.6615 58.8485 29.957 58.6126C30.1234 58.4838 30.3005 58.3448 30.4808 58.204C30.8612 57.9068 31.2746 57.5946 31.6898 57.2855C32.4583 56.7111 33.1975 56.1005 33.9523 55.5096C34.5041 55.0848 35.1301 54.6377 35.7712 54.2022C36.2001 53.9096 36.625 53.6031 37.0327 53.2738C37.9299 52.5557 38.7669 51.7621 39.6725 51.0514C40.1891 50.6592 40.7234 50.2976 41.2405 49.9133C41.7869 49.508 42.3545 49.1394 42.8992 48.7311C43.8586 48.0057 44.7325 47.1826 45.668 46.4301C46.1428 46.0661 46.6331 45.7218 47.1181 45.3683C47.6218 45.004 48.1144 44.6134 48.6164 44.246C49.1245 43.8751 49.6295 43.5059 50.1155 43.111C50.5632 42.7504 50.9941 42.375 51.4436 42.0175C52.0848 41.5248 52.7402 41.0565 53.3832 40.5669C53.9875 40.1036 54.5609 39.6011 55.1616 39.1317C55.7891 38.6511 56.4342 38.201 57.055 37.716C57.6358 37.2623 58.1939 36.7767 58.7711 36.3168C59.306 35.9059 59.8564 35.5146 60.4188 35.1369C60.9513 34.7723 61.5011 34.4303 62.0111 34.0338C63.0013 33.2539 63.8927 32.3676 64.8793 31.5815C65.549 31.0805 66.2519 30.6298 66.9163 30.1196C67.5019 29.6672 68.0804 29.2025 68.6625 28.7439C69.2344 28.3035 69.8235 27.8858 70.39 27.4362C70.8795 27.0474 71.3602 26.6433 71.8546 26.2557C72.9035 25.4337 74.0282 24.8293 75.2072 24.1894C75.3989 24.0828 75.5986 23.9757 75.7372 23.8059C75.8726 23.6378 75.943 23.393 75.8462 23.2039C75.9748 23.2685 78.7325 21.8397 78.958 21.7054C79.1728 21.5814 79.3704 21.4346 79.5834 21.3076C79.6377 21.2721 79.6818 21.2263 79.7361 21.1908C80.1632 20.8953 80.5748 20.58 80.9643 20.2408C81.0026 20.2065 81.0408 20.1721 81.0791 20.1377C81.1281 20.0931 81.1788 20.0516 81.2278 20.007C81.5496 19.7232 81.8648 19.435 82.1853 19.1561C82.5913 18.7951 83.011 18.4507 83.405 18.0762C84.4045 17.1112 85.3031 16.0288 85.8656 14.7526L85.8581 14.761ZM25.1668 48.6332C25.8302 48.1645 26.4541 47.649 27.1295 47.1938C27.8529 46.7067 28.6103 46.2858 29.3301 45.7926C30.0638 45.2873 30.7474 44.717 31.4846 44.2179C32.228 43.7152 33.013 43.2701 33.7303 42.7294C34.3782 42.241 35.0009 41.7304 35.6368 41.2285C36.1895 40.8196 36.7567 40.4431 37.3403 40.0735C37.907 39.7177 38.4649 39.3466 39.0246 38.9786C40.1394 38.2492 41.1949 37.4315 42.2407 36.6113C42.2577 36.5974 42.2715 36.5854 42.2853 36.5733C42.6755 36.2786 43.1098 35.9666 43.5644 35.6755C43.9679 35.4181 44.3851 35.1772 44.7886 34.9198C45.2374 34.6402 45.6893 34.3589 46.1187 34.0456C46.5218 33.7516 46.9134 33.452 47.3117 33.1568C48.1157 32.5578 48.9636 32.0274 49.7853 31.4591C50.5324 30.9339 51.2484 30.3693 51.968 29.811C52.4165 29.4662 52.8788 29.1381 53.3584 28.8326C53.7636 28.5782 54.1773 28.3313 54.5808 28.0738C55.442 27.5235 56.2652 26.9216 57.0897 26.3149C57.8924 25.7208 58.7407 25.1984 59.5571 24.6208C60.3148 24.0854 61.042 23.5185 61.7753 22.9481C61.8078 22.9253 61.8368 22.8963 61.8692 22.8735C62.2515 22.5793 62.7093 22.2578 63.1813 21.9608C63.6266 21.6751 64.0891 21.4121 64.5309 21.1203C65.2996 20.6112 66.0303 20.0505 66.7832 19.5137C67.1418 19.2577 67.511 19.02 67.8696 18.7639C68.3025 18.4568 68.7217 18.1331 69.1511 17.8199C69.4074 17.6311 69.6704 17.4466 69.9369 17.2682C70.0909 17.4488 70.2481 17.6276 70.4128 17.7979C70.966 18.3892 71.5827 18.9111 72.1799 19.4565C72.1853 19.4657 72.1906 19.4749 72.2039 19.4836C72.3804 19.7246 72.5307 19.985 72.6841 20.2435C72.6623 20.2561 72.6401 20.2607 72.6232 20.2746C72.4622 20.3839 72.3078 20.4976 72.1485 20.6099C71.7214 20.9055 71.2974 21.1993 70.8857 21.5146C70.1506 22.0819 69.3721 22.5886 68.6281 23.1406C67.634 23.8779 66.729 24.719 65.7092 25.4261C64.9827 25.915 64.2487 26.3837 63.5377 26.8922C62.7479 27.4584 61.9962 28.0762 61.21 28.6486C60.3432 29.2756 59.4504 29.8646 58.608 30.5265C57.7473 31.2072 56.9273 31.9297 56.0317 32.5571C55.2074 33.1065 54.3644 33.6381 53.5697 34.2317C52.7963 34.8048 52.0491 35.4159 51.2602 35.9693C51.0342 36.1243 50.8082 36.2793 50.5853 36.4325C49.9291 36.8849 49.2914 37.3551 48.675 37.8621C48.0003 38.4191 47.3389 38.9847 46.6247 39.495C45.4031 40.327 44.1597 41.1142 42.992 42.0253C42.4513 42.4477 41.9089 42.867 41.3801 43.303C40.8696 43.7202 40.3521 44.1252 39.8106 44.5032C38.9689 45.0585 38.0945 45.5716 37.2926 46.1815C36.5308 46.7602 35.8097 47.3807 35.0271 47.9306C34.1213 48.5475 33.2368 49.1725 32.4049 49.8815C31.7768 50.4115 31.1241 50.8986 30.4478 51.3666C29.9228 51.7228 29.4112 52.0877 28.8986 52.4653C28.2422 52.9463 27.5771 53.412 26.9243 53.8991C26.7793 54.0074 26.6328 54.1205 26.4864 54.2336C25.48 52.7565 24.6863 51.1444 23.8952 49.5226C24.3157 49.2226 24.7361 48.9227 25.1566 48.6228L25.1668 48.6332ZM15.5665 60.8159C16.2551 60.0386 16.8733 59.2039 17.4617 58.3537C17.8767 58.9717 18.3129 59.5978 18.7642 60.2357C17.7079 60.4698 16.642 60.6728 15.5665 60.8159ZM20.955 59.6732C20.1739 58.6581 19.4141 57.6226 18.7478 56.5331C19.4966 55.5005 20.2538 54.4753 20.8896 53.3691C21.3193 52.6106 21.8829 51.9258 22.4203 51.2317C23.0047 52.4093 23.6812 53.5378 24.4626 54.5894C25.2085 55.6656 25.994 56.7313 26.8542 57.7251C24.9165 58.46 22.9509 59.1252 20.955 59.6732ZM73.7053 22.3287C72.6469 23.0623 71.7283 23.9806 70.715 24.778C70.209 25.1599 69.6894 25.5253 69.1834 25.9072C68.6744 26.291 68.1874 26.6987 67.6868 27.0898C67.0318 27.5946 66.3595 28.0767 65.7111 28.5858C65.0596 29.0967 64.4474 29.6543 63.7977 30.1683C62.7858 30.9322 61.6885 31.5697 60.6815 32.3349C60.1649 32.7271 59.6961 33.1734 59.21 33.5969C58.7778 33.9772 58.3354 34.3469 57.8846 34.7093C57.2184 35.2164 56.5262 35.6855 55.8631 36.1908C55.2508 36.6546 54.666 37.1515 54.0638 37.6257C53.4391 38.0967 52.7918 38.5358 52.1772 39.0172C51.6303 39.4432 51.0953 39.8827 50.5519 40.3149C49.8938 40.8215 49.2042 41.2808 48.5447 41.7923C47.9235 42.2694 47.3244 42.7704 46.7103 43.2598C46.0783 43.7471 45.4352 44.294 44.7748 44.8183C43.745 45.6088 42.6219 46.2735 41.6148 47.096C40.6 47.9268 39.6145 48.7939 38.5843 49.6052C37.656 50.3126 36.665 50.9256 35.7327 51.619C35.3162 51.933 34.9086 52.2623 34.516 52.6033C33.9765 53.0781 33.4295 53.5328 32.8625 53.9744C32.3014 54.4046 31.6229 54.8903 30.9634 55.4017C30.5366 55.7339 30.1183 56.0734 29.6933 56.4086L29.6532 56.4399C29.6532 56.4399 29.6283 56.4543 29.6176 56.4645C29.3818 56.6456 29.1335 56.8339 28.8883 57.0204C28.739 56.8697 28.5849 56.7178 28.4325 56.5689C28.172 56.3191 27.9254 56.0572 27.6929 55.7912C28.3781 55.3099 29.0554 54.8004 29.7357 54.2892C30.2773 53.8826 30.8241 53.4852 31.3537 53.0651C31.849 52.6648 32.3532 52.2798 32.8729 51.9144C33.5576 51.4538 34.2582 51.0207 34.9238 50.5343C35.6616 49.9858 36.3582 49.3876 37.1101 48.8637C37.9438 48.3088 38.7695 47.7545 39.539 47.1101C40.2761 46.4886 41.0065 45.8627 41.7936 45.3062C42.8573 44.5818 44.0477 43.8251 45.1669 42.9666C45.7374 42.531 46.3106 42.0858 46.8638 41.6275C47.4077 41.1747 47.9604 40.7371 48.5437 40.3309C49.4241 39.7491 50.3288 39.2023 51.1707 38.561C51.9651 37.9595 52.7253 37.3205 53.5421 36.7509C54.3327 36.2005 55.1132 35.6396 55.864 35.0347C56.2485 34.7228 56.6308 34.4 57.0184 34.0864C57.3923 33.7848 57.7785 33.5046 58.17 33.2336C59.094 32.6267 60.022 32.0337 60.8959 31.3617C61.3645 31.0013 61.826 30.6287 62.2999 30.2775C62.7026 29.9756 63.1191 29.6903 63.532 29.3988C64.319 28.8423 65.0986 28.2656 65.841 27.6532C66.4525 27.145 67.0596 26.6434 67.7141 26.1879C68.3276 25.7766 68.9601 25.391 69.5612 24.9582C70.4667 24.3047 71.3407 23.6041 72.2444 22.9475C72.7049 22.6163 73.1513 22.2606 73.6012 21.911C73.6533 22.0157 73.713 22.1119 73.762 22.2184C73.7446 22.2529 73.7175 22.2849 73.7049 22.3208L73.7053 22.3287ZM78.1584 19.7741C77.7051 20.0603 77.2567 20.3477 76.7963 20.6217C76.4134 20.8428 76.0194 21.0376 75.6161 21.2091C75.5503 21.239 75.4855 21.256 75.4228 21.284C75.4104 21.2626 75.3962 21.2381 75.3821 21.2136C75.2972 21.0666 75.138 20.8196 74.9912 20.5654C74.8091 20.2499 74.6297 19.9247 74.4578 19.5911C74.2639 19.2049 74.1011 18.8006 73.8729 18.4342C73.7499 18.2356 73.5981 18.0661 73.4493 17.8947C73.2988 17.7202 73.1514 17.544 72.9977 17.3713C72.7024 17.0396 72.4044 16.7175 72.0828 16.405C71.9951 16.3249 71.8994 16.2454 71.8099 16.1624C72.3459 15.6528 72.8966 15.147 73.4863 14.68C73.9442 14.3298 74.4105 13.9871 74.8856 13.6597C75.5312 14.5406 76.1693 15.43 76.8113 16.3048C77.404 17.3674 77.9909 18.4415 78.5792 19.5107C78.4377 19.5964 78.295 19.687 78.1584 19.7741ZM82.762 15.8625C82.3284 16.4273 81.8513 16.9886 81.3401 17.5124C81.0899 17.7549 80.8277 17.9838 80.5553 18.2023C80.4566 18.2757 80.3556 18.3381 80.255 18.4084C79.1046 16.4877 77.9248 14.588 76.7588 12.6762C76.7397 12.6505 76.7225 12.6278 76.7052 12.6051C76.771 12.5752 76.8333 12.5393 76.9022 12.5077C77.6353 12.2028 78.3702 11.901 79.1126 11.6194C79.4758 11.4792 79.8425 11.345 80.2154 11.2359C80.4398 11.1717 80.6665 11.1184 80.8988 11.0823C81.2653 11.034 81.6313 11.0065 82.0031 10.996C82.3384 10.9944 82.6741 11.0006 83.0093 11.0276C83.1918 11.0489 83.3698 11.0768 83.55 11.1157C83.6525 11.1422 83.7537 11.1736 83.8535 11.2099C83.9191 11.2374 83.9835 11.2697 84.0478 11.302C84.0992 11.3335 84.1489 11.362 84.1989 11.3984C84.2393 11.4323 84.2747 11.465 84.315 11.4988C84.3354 11.5197 84.3544 11.5455 84.3748 11.5664C84.4023 11.5996 84.4284 11.6376 84.4496 11.6743C84.4726 11.7142 84.4907 11.7527 84.5074 11.7961C84.5206 11.8334 84.5339 11.8707 84.544 11.9098C84.5545 11.9568 84.5633 12.0007 84.572 12.0447C84.5817 12.1045 84.5833 12.1648 84.5849 12.2251C84.5842 12.3031 84.5787 12.3798 84.5732 12.4565C84.5538 12.5738 84.5308 12.6851 84.5048 12.7981C84.4384 13.0284 84.3619 13.2482 84.276 13.4733C84.176 13.7026 84.0643 13.9263 83.943 14.1475C83.5914 14.7466 83.192 15.3202 82.7722 15.8729L82.762 15.8625Z" fill="#111827"/>
<path d="M26.933 50.3334C27.0158 50.4408 27.1297 50.5302 27.2485 50.5922C27.5044 50.7263 27.8201 50.7482 28.0878 50.6222C28.2319 50.5554 28.3649 50.4622 28.4966 50.374C29.1782 49.9151 29.8473 49.4348 30.5165 48.9546C31.042 48.5777 31.5794 48.2143 32.0978 47.8252C32.6069 47.4414 33.1124 47.0515 33.6419 46.6887C34.4013 46.1849 35.1952 45.7265 35.9457 45.2075C36.6469 44.725 37.3047 44.1819 38.0024 43.6934C38.7587 43.1914 39.5415 42.7354 40.2632 42.188C41.1394 41.5269 41.9642 40.8057 42.8616 40.1814C43.6873 39.6271 44.5391 39.1108 45.3631 38.5534L45.3693 38.5498C45.3693 38.5498 45.3755 38.5463 45.3786 38.5445C45.3911 38.5373 45.4067 38.5283 45.4191 38.5211C45.4316 38.5139 45.4471 38.5049 45.4596 38.4977C45.731 38.3206 45.9208 38.0599 45.9612 37.7344C45.9908 37.4764 45.9186 37.2077 45.7584 37.0021C45.419 36.5651 44.777 36.5029 44.3324 36.8331C44.2506 36.8926 44.1705 36.9552 44.0868 37.0116C43.1849 37.6712 42.3277 38.3866 41.4067 39.0204C40.4489 39.6551 39.4349 40.1997 38.5001 40.8742C37.8403 41.349 37.2198 41.8706 36.5511 42.3302C35.7668 42.8483 34.9652 43.3438 34.2176 43.9184C33.4901 44.4773 32.786 45.0553 32.0336 45.5713C32.015 45.5821 31.9994 45.5911 31.9825 45.6049C31.4989 45.925 30.9518 46.2572 30.4308 46.6274C29.9298 46.982 29.4253 47.3304 28.919 47.6758C28.3709 48.0495 27.8263 48.4292 27.2937 48.8225C27.198 48.8941 27.0974 48.9644 27.0119 49.0464C26.6677 49.3921 26.6303 49.9528 26.9264 50.329L26.933 50.3334Z" fill="#111827"/>
</g>
<defs>
<clipPath id="clip0_1_37605">
<rect width="98.2389" height="27.4646" fill="white" transform="translate(0.165039 49.4409) rotate(-30)"/>
</clipPath>
</defs>
</svg>
