<svg width="244" height="72" viewBox="0 0 244 72" fill="none" xmlns="http://www.w3.org/2000/svg">
<g opacity="0.5">
<rect x="0.840539" y="1.24068" width="242.318" height="70.2935" rx="5.29851" stroke="#E5E7EB" stroke-width="0.706468"/>
<rect x="8.96484" y="20.1284" width="226.07" height="4.23881" rx="2.1194" fill="#D9D9D9"/>
<rect x="64.0693" y="20.1284" width="105.97" height="4.23881" rx="2.1194" fill="#2678FC"/>
<circle cx="59.1238" cy="22.2478" r="5.65174" fill="white" stroke="#2678FC" stroke-width="2.82587"/>
<circle cx="170.039" cy="22.2478" r="5.65174" fill="white" stroke="#2678FC" stroke-width="2.82587"/>
<path d="M16.5413 52.6157V45.7715H17.5106L20.0426 51.4289L22.5746 45.7715H23.534V52.6157H22.6339V47.5122L20.3591 52.6157H19.7261L17.4414 47.5023V52.6157H16.5413ZM25.0604 52.6157V47.1957H25.9604V52.6157H25.0604ZM25.5252 46.3154C25.179 46.3154 24.912 46.0484 24.912 45.7022C24.912 45.3561 25.179 45.089 25.5252 45.089C25.8516 45.089 26.1186 45.3561 26.1186 45.7022C26.1186 46.0484 25.8516 46.3154 25.5252 46.3154ZM31.4605 52.6157V49.5497C31.4605 48.4419 30.8571 47.8782 29.9472 47.8782C29.0274 47.8782 28.3944 48.4518 28.3944 49.6189V52.6157H27.4944V47.1957H28.3944V47.9672C28.7505 47.4034 29.4032 47.0968 30.1351 47.0968C31.3912 47.0968 32.3506 47.8683 32.3506 49.4211V52.6157H31.4605ZM33.8208 52.6157V47.1957H34.7209V52.6157H33.8208ZM34.2857 46.3154C33.9395 46.3154 33.6725 46.0484 33.6725 45.7022C33.6725 45.3561 33.9395 45.089 34.2857 45.089C34.6121 45.089 34.8791 45.3561 34.8791 45.7022C34.8791 46.0484 34.6121 46.3154 34.2857 46.3154ZM44.0783 52.6157V49.5497C44.0783 48.4419 43.4848 47.8782 42.5947 47.8782C41.6847 47.8782 41.0616 48.4617 41.0616 49.6288V52.6157H40.1715V49.5497C40.1715 48.4419 39.5781 47.8782 38.6879 47.8782C37.778 47.8782 37.1549 48.4617 37.1549 49.6288V52.6157H36.2548V47.1957H37.1549V47.9771C37.5109 47.4034 38.1538 47.0968 38.8659 47.0968C39.7561 47.0968 40.4979 47.4924 40.8539 48.3034C41.1704 47.5221 41.9419 47.0968 42.7727 47.0968C44.009 47.0968 44.9684 47.8683 44.9684 49.4211V52.6157H44.0783ZM51.2516 47.1957V52.6157H50.3516V51.8146C50.0054 52.3783 49.3427 52.6948 48.6207 52.6948C47.3745 52.6948 46.3953 51.9234 46.3953 50.3706V47.1957H47.2855V50.2519C47.2855 51.3497 47.8888 51.9135 48.7987 51.9135C49.7285 51.9135 50.3516 51.3398 50.3516 50.1728V47.1957H51.2516ZM60.5947 52.6157V49.5497C60.5947 48.4419 60.0013 47.8782 59.1111 47.8782C58.2012 47.8782 57.5781 48.4617 57.5781 49.6288V52.6157H56.6879V49.5497C56.6879 48.4419 56.0945 47.8782 55.2043 47.8782C54.2944 47.8782 53.6713 48.4617 53.6713 49.6288V52.6157H52.7713V47.1957H53.6713V47.9771C54.0274 47.4034 54.6703 47.0968 55.3824 47.0968C56.2725 47.0968 57.0143 47.4924 57.3704 48.3034C57.6869 47.5221 58.4583 47.0968 59.2891 47.0968C60.5255 47.0968 61.4848 47.8683 61.4848 49.4211V52.6157H60.5947Z" fill="#1B1B1C"/>
<path d="M176.994 52.6157V45.7715H177.963L180.495 51.4289L183.027 45.7715H183.987V52.6157H183.087V47.5122L180.812 52.6157H180.179L177.894 47.5023V52.6157H176.994ZM185.177 49.8859C185.177 48.1946 186.294 47.1067 187.748 47.1067C188.757 47.1067 189.45 47.621 189.766 48.1848V47.1957H190.676V52.6157H189.766V51.6069C189.44 52.1904 188.737 52.7047 187.738 52.7047C186.294 52.7047 185.177 51.5673 185.177 49.8859ZM189.766 49.8958C189.766 48.6397 188.915 47.888 187.926 47.888C186.937 47.888 186.097 48.6101 186.097 49.8859C186.097 51.1618 186.937 51.9135 187.926 51.9135C188.915 51.9135 189.766 51.1717 189.766 49.8958ZM195.026 52.6157L193.74 50.5981L192.504 52.6157H191.564L193.315 49.9255L191.564 47.1957H192.583L193.868 49.2035L195.095 47.1957H196.034L194.294 49.876L196.044 52.6157H195.026ZM196.93 52.6157V47.1957H197.83V52.6157H196.93ZM197.395 46.3154C197.048 46.3154 196.781 46.0484 196.781 45.7022C196.781 45.3561 197.048 45.089 197.395 45.089C197.721 45.089 197.988 45.3561 197.988 45.7022C197.988 46.0484 197.721 46.3154 197.395 46.3154ZM207.187 52.6157V49.5497C207.187 48.4419 206.594 47.8782 205.704 47.8782C204.794 47.8782 204.171 48.4617 204.171 49.6288V52.6157H203.28V49.5497C203.28 48.4419 202.687 47.8782 201.797 47.8782C200.887 47.8782 200.264 48.4617 200.264 49.6288V52.6157H199.364V47.1957H200.264V47.9771C200.62 47.4034 201.263 47.0968 201.975 47.0968C202.865 47.0968 203.607 47.4924 203.963 48.3034C204.279 47.5221 205.051 47.0968 205.882 47.0968C207.118 47.0968 208.077 47.8683 208.077 49.4211V52.6157H207.187ZM214.36 47.1957V52.6157H213.46V51.8146C213.114 52.3783 212.452 52.6948 211.73 52.6948C210.483 52.6948 209.504 51.9234 209.504 50.3706V47.1957H210.394V50.2519C210.394 51.3497 210.998 51.9135 211.908 51.9135C212.837 51.9135 213.46 51.3398 213.46 50.1728V47.1957H214.36ZM223.704 52.6157V49.5497C223.704 48.4419 223.11 47.8782 222.22 47.8782C221.31 47.8782 220.687 48.4617 220.687 49.6288V52.6157H219.797V49.5497C219.797 48.4419 219.203 47.8782 218.313 47.8782C217.403 47.8782 216.78 48.4617 216.78 49.6288V52.6157H215.88V47.1957H216.78V47.9771C217.136 47.4034 217.779 47.0968 218.491 47.0968C219.381 47.0968 220.123 47.4924 220.479 48.3034C220.796 47.5221 221.567 47.0968 222.398 47.0968C223.634 47.0968 224.594 47.8683 224.594 49.4211V52.6157H223.704Z" fill="#1B1B1C"/>
</g>
</svg>
