<svg width="75" height="80" viewBox="0 0 75 80" fill="none" xmlns="http://www.w3.org/2000/svg">
<g opacity="0.1" clip-path="url(#clip0_1_37599)">
<path d="M35.7074 71.6226C33.6086 73.0881 30.8453 72.7538 29.2811 70.8455C29.2564 70.8141 29.2311 70.7852 29.2064 70.7537C28.021 69.2011 27.914 67.4402 27.8399 66.2766C27.8266 66.0382 27.8117 65.816 27.7902 65.6389C27.784 65.5903 27.781 65.5397 27.778 65.4892C27.7242 64.6819 27.7059 63.9891 27.7281 63.3402C27.2221 63.1715 26.7327 62.9713 26.2369 62.7335C25.7558 62.5023 25.2545 62.2437 24.6921 61.9355C24.4157 61.7841 24.1346 61.6397 23.8536 61.4954C23.1756 61.1452 22.4734 60.7829 21.7534 60.322C21.1817 59.9561 20.6773 59.5751 20.2131 59.1579C19.9447 58.9147 19.7033 58.6842 19.4681 58.461C19.3582 58.3569 19.2515 58.251 19.1409 58.1495C19.0926 58.1034 19.0436 58.0599 18.9953 58.0138C18.9888 58.0176 18.9296 58.0431 18.9296 58.0431C18.7766 58.1099 18.5488 58.2091 18.2631 58.2983C18.0189 58.3765 17.8016 58.4261 17.6525 58.4579C17.5363 58.4903 17.3527 58.5378 17.1279 58.5743C16.9725 58.599 16.8205 58.6107 16.6654 58.6134C14.4972 58.8253 12.118 58.2099 10.3595 56.9651C10.3295 56.9433 10.2969 56.9208 10.2676 56.8963C8.16065 55.2958 7.00356 53.0407 6.23106 51.2535C6.18204 51.1381 6.13885 51.0216 6.10218 50.9012L5.95294 50.4192C5.18496 47.9259 4.31362 45.0982 4.73696 41.9958C4.74789 41.9241 4.75951 41.8499 4.77302 41.7789C5.15006 39.9295 5.56792 37.8865 7.19452 36.0541C7.15439 35.7616 7.10554 35.4501 7.05074 35.1094C7.02631 34.9537 7.01098 34.7949 7.00851 34.6395C7.00215 34.2621 6.97747 33.8604 6.95061 33.436C6.89476 32.5232 6.83004 31.4891 6.92529 30.393C6.93089 30.331 6.93837 30.2722 6.94654 30.2108C7.00228 29.8279 7.0503 29.443 7.09833 29.058C7.28778 27.5589 7.50331 25.8595 8.07063 24.1743C8.09442 24.1061 8.1189 24.0353 8.14784 23.9685C9.16701 21.4816 10.4558 18.647 12.8431 16.4134C13.4384 15.7966 14.1011 15.2366 14.8675 14.7015C16.3563 13.661 17.9796 12.9108 19.4134 12.2507L19.8822 12.0337C19.9324 12.0112 19.9825 11.9887 20.0352 11.9669C23.4308 10.5893 26.9882 10.2744 30.3275 10.1359C30.3443 10.1348 30.3611 10.1338 30.3805 10.1335C30.9937 10.1182 31.5994 10.1313 32.168 10.1593C32.4068 9.83379 32.6711 9.52613 32.9597 9.24152C32.9755 9.22365 32.9932 9.20905 33.0115 9.19188C33.2256 8.98954 33.4575 8.80303 33.7021 8.63097C34.7973 7.8663 35.9606 7.56745 37.0577 7.36137C38.4684 7.06525 39.9224 7.02938 41.3822 7.24925C41.4325 7.25719 41.4853 7.26582 41.5348 7.27633C42.7385 7.51598 43.8318 7.86969 44.889 8.21375C45.5152 8.41747 46.1061 8.60896 46.6822 8.76332C46.7799 8.7895 46.8763 8.82084 46.9719 8.85476C50.0321 9.98416 53.4953 11.4508 55.9158 14.5969C57.1659 16.1862 57.6847 18.2204 57.395 20.3613C57.3869 20.4945 57.371 20.6256 57.3468 20.7572C57.3082 20.9734 57.2593 21.1454 57.231 21.2511L57.2068 21.3413C57.179 21.4555 57.1427 21.6115 57.0866 21.7899C57.0846 21.7976 57.0825 21.8053 57.0804 21.8131C56.9881 22.106 56.8868 22.3607 56.8079 22.5523L56.791 22.5947C56.7619 22.6726 56.72 22.7774 56.6642 22.9033C56.6481 22.9432 56.6325 22.9805 56.617 23.0178C56.5478 23.1733 56.4697 23.3209 56.3794 23.4624C56.1672 23.8531 55.9341 24.2189 55.6783 24.5565C55.713 24.6017 55.7478 24.6469 55.7825 24.6922C56.4571 25.5691 56.9336 26.4759 57.3564 27.2743L57.4401 27.4349C57.5827 27.7052 57.7356 27.9782 57.8953 28.2669L58.0237 28.4974C58.248 28.8946 58.4476 29.3017 58.6249 29.6586L58.7103 29.8335C58.9655 30.3522 59.1886 30.8982 59.3757 31.465C59.5776 32.0799 59.7078 32.6535 59.8204 33.1589L59.93 33.6552C59.9935 33.9429 60.0576 34.2281 60.1218 34.5133C60.2413 35.0343 60.3753 35.6144 60.4663 36.2521C60.6212 37.2993 60.6641 38.322 60.6945 39.3606C60.7137 39.968 60.6912 40.556 60.6504 41.1197C61.3002 41.3795 61.9636 41.7119 62.5992 42.1585C63.4668 42.7474 65.6758 44.2758 65.8625 46.8814C65.9249 47.749 65.782 49.4347 64.1154 50.9635C64.0058 51.064 63.8899 51.1572 63.7676 51.2432C63.744 51.259 63.7198 51.2774 63.6937 51.2925C61.544 52.7112 59.2299 52.6243 57.3387 52.2861C57.0562 52.7436 56.7618 53.1427 56.4979 53.5002L56.4377 53.5808C56.1638 53.955 55.8969 54.3338 55.6282 54.7093L55.5798 54.7765C55.2509 55.2326 54.9088 55.6659 54.5252 56.1101L54.4928 56.1484C54.3247 56.3437 54.1573 56.5364 53.988 56.7259C53.7753 56.9645 53.5785 57.1742 53.3924 57.3647C53.0386 57.7285 52.6291 58.094 52.1148 58.5115C51.9602 58.6359 51.8075 58.7635 51.6529 58.8878C51.4413 59.0604 51.2322 59.2337 51.0187 59.403C50.6872 59.6734 50.36 59.9172 50.0304 60.1494C49.9422 60.2114 49.8513 60.2727 49.7612 60.3314C49.3782 60.588 49.0037 60.8026 48.6709 60.9952C48.5828 61.0462 48.2468 61.2407 48.2468 61.2407C47.9043 61.439 47.5487 61.6449 47.1718 61.8478C46.6723 62.1173 46.1378 62.3636 45.5394 62.6011C45.2747 62.7042 45.0107 62.8048 44.7455 62.8995C44.596 62.9534 44.4458 63.0098 44.2982 63.067L43.9088 63.214C43.568 63.3438 43.2248 63.4728 42.8796 63.5986C42.4908 63.743 42.1251 63.8633 41.77 63.9643C41.2448 64.1137 40.7468 64.1929 40.2916 64.2561C39.9426 64.3035 39.5997 64.3387 39.2737 64.3618C39.1517 65.1773 38.9755 65.9479 38.7408 66.6696C38.4884 67.7043 38.0182 69.4487 36.59 70.8286C36.3258 71.1253 36.0267 71.3877 35.7004 71.618L35.7074 71.6226Z" fill="white"/>
<path d="M49.4136 28.6713C48.7839 27.8837 48.079 27.1506 47.3114 26.4974C46.8901 26.1358 46.4367 25.832 45.9717 25.5306C45.6313 25.3095 45.2922 25.0833 44.9465 24.8719C44.5202 24.6112 44.0864 24.3679 43.6281 24.165C43.2358 23.9935 42.8335 23.8388 42.4319 23.6814C41.9231 23.4816 41.4081 23.2745 40.8783 23.1325C40.3562 22.9927 39.8276 22.898 39.2917 22.8096C38.7455 22.7185 38.2 22.6249 37.6544 22.5422C37.2214 22.4814 36.7884 22.4207 36.3527 22.4006C35.4387 22.3657 34.5286 22.5528 33.6363 22.7143C33.0939 22.8149 32.5487 22.8953 32.0089 22.9966C31.5391 23.0834 31.0781 23.2196 30.6277 23.378C30.1039 23.5636 29.5874 23.7733 29.0739 23.9921C28.6197 24.1854 28.1775 24.3956 27.752 24.6463C27.2424 24.9435 26.7471 25.2694 26.2469 25.5829C25.8296 25.8441 25.3964 26.0927 25.0209 26.4037C24.7699 26.61 24.5208 26.8195 24.2978 27.0554C24.1175 27.2447 23.9417 27.4379 23.7677 27.6344C23.4199 28.0274 23.0905 28.4337 22.7585 28.8393C22.4754 29.1861 22.1782 29.5237 21.9066 29.8791C21.5899 30.2998 21.2519 30.7176 20.9844 31.1709C20.7022 31.6478 20.4753 32.1451 20.279 32.6616C20.0982 33.1408 19.9123 33.6187 19.7348 34.096C19.5335 34.6416 19.338 35.186 19.2099 35.7567C19.1022 36.2307 18.9835 36.7044 18.9008 37.1879C18.8076 37.721 18.7322 38.2699 18.7324 38.8142C18.7359 39.2848 18.7529 39.7562 18.7608 40.2308C18.7697 40.6808 18.7652 41.1299 18.78 41.5786C18.7938 42.0105 18.8483 42.4451 18.9113 42.8681C19.0553 43.8018 19.3405 44.7126 19.6175 45.6128C19.8871 46.489 20.2563 47.3228 20.7304 48.1046C20.9615 48.487 21.2023 48.8638 21.4308 49.2455C21.6499 49.6108 21.8669 49.9839 22.1056 50.338C22.3877 50.7561 22.694 51.1559 23.0336 51.5343C23.3651 51.9021 23.7221 52.2464 24.0824 52.5888C24.4401 52.9306 24.7925 53.2819 25.1733 53.5994C25.5852 53.9446 26.0268 54.2509 26.4917 54.5218C26.9873 54.8121 27.5035 55.0665 28.0076 55.3452C28.3557 55.5379 28.7009 55.7409 29.0603 55.9118C29.8842 56.3039 30.727 56.6457 31.622 56.8441C31.9238 56.9112 32.2268 56.9841 32.5334 57.0331C32.7878 57.0709 33.0404 57.1054 33.2944 57.1348C33.772 57.1937 34.2462 57.2655 34.7192 57.3314C35.2475 57.4067 35.7856 57.4763 36.3193 57.4701C36.8142 57.4646 37.3045 57.4246 37.7953 57.3517C38.722 57.216 39.6618 57.1446 40.5643 56.8725C41.3577 56.6376 42.1232 56.3012 42.8951 56.0024C43.2794 55.854 43.6607 55.6965 44.0275 55.5102C44.3567 55.3415 44.682 55.1662 45.0017 54.9811C45.2497 54.8376 45.4971 54.6856 45.7375 54.529C46.2558 54.2203 46.7674 53.885 47.2212 53.4872C47.7184 53.0513 48.1706 52.5674 48.6119 52.0723C48.8326 51.8248 49.0533 51.5773 49.2707 51.3316C49.7977 50.7435 50.3216 50.1462 50.7766 49.4973C51.2302 48.8536 51.568 48.1484 51.8674 47.4219C52.1811 46.6523 52.5051 45.8854 52.7791 45.0996C53.0741 44.2559 53.2331 43.3537 53.3699 42.4731C53.441 42.0225 53.5037 41.5724 53.5271 41.1146C53.5483 40.6754 53.5541 40.2322 53.5482 39.7913C53.5337 38.8371 53.5375 37.8766 53.3743 36.9323C53.285 36.4221 53.1284 35.916 52.9659 35.4221C52.8125 34.9556 52.6481 34.4888 52.4922 34.0216C52.311 33.484 52.116 32.9566 51.8919 32.4352C51.6852 31.9515 51.4727 31.4691 51.193 31.0212C50.6746 30.1889 50.0275 29.4353 49.4168 28.6694L49.4136 28.6713ZM49.8216 31.8086C50.1042 32.307 50.4051 32.7993 50.6675 33.3116C50.906 33.8203 51.1401 34.3251 51.3253 34.8582C51.4438 35.2491 51.5364 35.6441 51.6186 36.0474C51.7134 36.5784 51.7778 37.1095 51.87 37.6398C51.9591 38.161 52.0489 38.6796 52.0972 39.2091C52.1243 39.6943 52.1192 40.1764 52.0907 40.6633C52.0384 41.4036 51.9719 42.1455 51.8423 42.8761C51.6712 43.7308 51.4369 44.5743 51.1765 45.4023C51.0533 45.7589 50.9162 46.1062 50.7559 46.4472C50.475 47.0019 50.1442 47.5266 49.8223 48.0592C49.5564 48.4963 49.3045 48.9426 49.027 49.3711C48.7407 49.7917 48.4531 50.2064 48.1235 50.5932C47.8646 50.8803 47.5875 51.1431 47.2982 51.3998C47.2765 51.4189 47.2549 51.438 47.2332 51.457C46.868 51.7708 46.4353 52.0997 46.009 52.4358C45.7648 52.6273 45.5261 52.8285 45.2793 53.0193C45.1641 53.11 45.0444 53.1967 44.9272 53.2842L44.8899 53.3101C44.5312 53.5482 44.1393 53.7969 43.7331 54.0168C43.3562 54.2197 42.9763 54.4135 42.5919 54.6034C42.2786 54.7543 41.961 54.8902 41.634 55.0098C41.1573 55.1638 40.6677 55.273 40.18 55.3854C39.6606 55.5032 39.1428 55.6352 38.621 55.7413C38.3489 55.7899 38.0769 55.8276 37.8007 55.8502C37.2158 55.8731 36.6291 55.8817 36.0449 55.9019C35.4942 55.9201 34.9436 55.9384 34.3918 55.9093C34.1687 55.8882 33.9495 55.8626 33.728 55.8254C32.848 55.6531 31.987 55.3893 31.1361 55.1088C30.3763 54.8582 29.5802 54.5786 28.8072 54.2333C28.5107 54.0848 28.2235 53.9222 27.9444 53.7397C27.4346 53.3793 26.9413 52.9985 26.4486 52.6151C26.056 52.3109 25.6582 52.0055 25.2789 51.6828C24.9294 51.3515 24.6041 51.0019 24.2855 50.6375C23.7105 49.9751 23.1343 49.3069 22.621 48.5891C22.4777 48.3629 22.3402 48.1354 22.2138 47.8971C21.9645 47.3772 21.7392 46.8499 21.5178 46.3182C21.2922 45.7715 21.0705 45.2203 20.8761 44.6599C20.7481 44.2222 20.6466 43.7779 20.551 43.3323C20.3892 42.4961 20.2195 41.5555 20.1262 40.6077C20.1122 40.3305 20.1086 40.056 20.118 39.7739C20.1579 39.2652 20.2222 38.7575 20.2859 38.2524C20.3548 37.7073 20.4237 37.1622 20.5223 36.6195C20.6684 35.9403 20.8585 35.2619 21.0689 34.5999C21.1844 34.2717 21.3114 33.9521 21.4564 33.6374C21.7517 33.07 22.0899 32.528 22.3897 31.9646C22.5319 31.7015 22.6625 31.4299 22.8169 31.1729C22.9612 30.9325 23.1107 30.6935 23.2595 30.4571C23.4729 30.1441 23.699 29.8455 23.9424 29.5543C24.2596 29.2139 24.594 28.8918 24.9417 28.5816C25.259 28.313 25.5819 28.0542 25.8974 27.7823C26.1727 27.5467 26.4418 27.3038 26.712 27.0668C26.9048 26.903 27.1791 26.6919 27.4707 26.4883C28.1317 26.0686 28.8345 25.7293 29.5343 25.3808C29.9719 25.1776 30.4219 24.9998 30.8774 24.8428C31.2698 24.7159 31.6671 24.6013 32.0639 24.4783C32.4567 24.3598 32.8482 24.2464 33.2509 24.1527C33.5581 24.0968 33.8655 24.0604 34.1786 24.0338C34.4864 24.0168 34.7927 24.005 35.1001 24.01C35.4133 24.0138 35.7289 24.0293 36.0461 24.0286C36.3716 24.0274 36.6986 24.0211 37.0211 24.0108C37.352 24 37.6825 24.0112 38.0116 24.0276C38.3296 24.0548 38.6448 24.0923 38.961 24.1466C39.4411 24.2476 39.9115 24.3847 40.3834 24.5167C40.778 24.628 41.1727 24.7392 41.5606 24.8653C41.9124 24.9927 42.2651 25.1369 42.6163 25.2973C43.4155 25.6993 44.2146 26.1013 44.9645 26.5841C45.6294 27.0551 46.259 27.5857 46.8835 28.1149C47.4408 28.6068 47.9643 29.1422 48.4605 29.6978C48.6522 29.9288 48.8315 30.1647 49.0043 30.4044C49.3013 30.8597 49.5605 31.3325 49.8281 31.8048L49.8216 31.8086Z" fill="#111827"/>
<path d="M38.7 30.0581C37.697 32.6902 37.3972 35.5578 37.4487 38.3591C37.5686 39.64 37.3421 40.9275 37.55 42.1989C34.6722 41.4996 31.7266 40.8788 28.7588 40.9069C28.035 40.9644 27.3341 41.1523 26.6168 41.2474C26.1329 41.325 25.5965 41.3829 25.2046 41.7034C24.7156 42.0779 24.7718 42.8969 25.3401 43.1625C25.6985 43.3165 26.0766 43.4178 26.4572 43.5198C28.5323 43.9432 30.6361 44.4241 32.7566 44.5033C33.7847 44.4417 34.8118 44.4351 35.8363 44.356C36.4382 44.2907 37.0268 44.1307 37.6336 44.1497C38.1495 44.1276 38.6571 44.0951 38.9549 43.6113C41.3111 41.1236 42.0345 37.5186 42.34 34.2078C42.3097 32.8294 42.5598 31.3714 42.0885 30.0544C41.2436 28.0129 39.4668 27.8545 38.7065 30.0543L38.7 30.0581ZM27.8342 42.4439C28.8097 42.4345 29.6662 42.4375 30.6842 42.4754C31.8519 42.5922 33.0102 42.8058 34.1748 42.9549C32.0369 42.9511 29.9549 42.8823 27.8375 42.442L27.8342 42.4439ZM40.8972 32.042C41.0173 33.1986 40.8347 34.3736 40.739 35.5332C40.3789 37.5253 40.0507 39.573 38.976 41.3515C38.964 41.1494 38.9502 40.944 38.933 40.7405C38.9098 40.4774 38.8749 40.2166 38.8543 39.9541C38.7702 38.7353 38.9586 37.5177 38.9875 36.2988C39.1304 34.1711 39.2166 31.8846 40.4861 30.0477C40.6848 30.6949 40.7458 31.3826 40.8972 32.042Z" fill="#111827"/>
<path d="M53.2688 16.6698C51.4143 14.25 48.5958 13.0417 45.8091 12.0132C44.1529 11.5695 42.554 10.9117 40.8772 10.5757C39.8259 10.4156 38.7533 10.4376 37.712 10.6614C36.8592 10.8197 35.9695 11.0233 35.3161 11.6411C34.7477 12.1988 34.3558 12.9309 34.1724 13.7079C33.9972 13.683 33.8179 13.6626 33.6555 13.6412C32.596 13.5424 31.5328 13.4675 30.4665 13.4967C27.3503 13.6259 24.2173 13.8998 21.2978 15.0846C19.1418 16.0844 16.8694 17.0558 15.2028 18.8112C13.3084 20.5524 12.2293 22.8824 11.2608 25.2419C10.6723 26.996 10.5398 28.8585 10.2801 30.6814C10.1679 31.9747 10.3495 33.2721 10.3774 34.567C10.5291 35.5028 10.663 36.4227 10.6949 37.3734C10.6914 37.3863 10.6964 37.3987 10.6955 37.4122C8.888 38.7264 8.54708 40.1325 8.07539 42.4484C7.72973 44.9831 8.58396 47.494 9.32292 49.9105C10.0103 51.5009 10.9068 53.1446 12.308 54.2107C13.4202 54.9977 15.1234 55.4513 16.609 55.225C16.6128 55.2316 16.6172 55.2355 16.6236 55.2428C16.7155 55.2287 16.8014 55.1965 16.8896 55.1759C17.016 55.1462 17.1444 55.1198 17.2678 55.0811C17.4029 55.0399 17.5311 54.9831 17.6593 54.9263C17.7752 54.8745 17.8918 54.82 18.002 54.7584C18.0411 54.7358 18.0892 54.721 18.1258 54.6977L18.1119 54.6774C18.2661 54.575 18.4293 54.4806 18.5665 54.3489C18.7592 54.1132 19.0742 53.8329 19.3416 53.5343C19.6721 53.9157 19.9934 54.3112 20.3586 54.666C20.7169 55.0162 21.0876 55.3504 21.4538 55.6916C21.7906 56.0084 22.1195 56.3341 22.4636 56.6446C22.8128 56.9564 23.1833 57.2297 23.5755 57.484C24.4507 58.0445 25.3978 58.4806 26.307 58.9757C26.7665 59.2259 27.2254 59.4676 27.6969 59.6934C28.0832 59.8771 28.4706 60.0361 28.8765 60.167C29.2946 60.3039 29.728 60.3841 30.1564 60.4823C30.6094 60.5816 31.0604 60.6886 31.5101 60.7898C31.3444 61.5521 31.2372 62.3328 31.1129 63.0952C31.0662 63.8148 31.0893 64.531 31.1387 65.2515C31.2693 66.3999 31.1542 67.7449 31.8862 68.7063C32.5118 69.4679 33.622 69.2129 34.1789 68.5029C34.9805 67.7949 35.2847 66.752 35.5263 65.7475C36.0013 64.3553 36.1534 62.7384 36.1221 61.2299C36.2281 61.2251 36.3293 61.2384 36.4335 61.2304C36.9263 61.1912 37.4156 61.1344 37.9092 61.0926C38.5559 61.0449 39.2133 61.0194 39.8576 60.9295C40.2007 60.8834 40.5466 60.8269 40.8809 60.7313C41.1704 60.6487 41.4576 60.5543 41.7397 60.4476C42.2046 60.2765 42.6656 60.0989 43.1278 59.9272C43.5271 59.7744 43.928 59.636 44.3261 59.4774C44.7605 59.3065 45.1837 59.116 45.5932 58.8942C45.9773 58.6849 46.3564 58.4633 46.7348 58.2442C47.1303 58.0131 47.5339 57.7925 47.9143 57.5353C48.264 57.3002 48.601 57.0507 48.9285 56.7848C49.2908 56.4923 49.6519 56.194 50.0149 55.899C50.3601 55.6185 50.7005 55.3257 51.0122 55.0058C51.1825 54.8332 51.3457 54.6559 51.5064 54.478C51.6718 54.293 51.8352 54.1047 51.9994 53.9139C52.3033 53.5615 52.5898 53.2018 52.8619 52.8244C53.1545 52.411 53.4491 52.001 53.7462 51.5916C54.036 51.1995 54.3276 50.8108 54.5751 50.3909C54.8401 49.9369 55.0653 49.4668 55.2661 48.9847C55.3437 48.7983 55.4128 48.6123 55.4903 48.4259C57.5626 48.8596 59.9481 49.7502 61.8672 48.4825C63.4057 47.0713 61.9644 45.7845 60.7029 44.9271C59.6317 44.1621 58.3197 43.8741 57.0605 43.5532C57.1119 43.125 57.1504 42.6933 57.1915 42.2622C57.285 41.3369 57.3858 40.4053 57.3582 39.4696C57.3313 38.5617 57.2943 37.6401 57.1633 36.7403C57.0918 36.2459 56.9813 35.7632 56.869 35.2773C56.7652 34.8212 56.6646 34.3633 56.5634 33.9079C56.459 33.4435 56.3521 32.9783 56.2037 32.5241C56.0699 32.1181 55.9096 31.7187 55.7206 31.3338C55.5214 30.9351 55.3295 30.53 55.1108 30.1427C54.9003 29.7658 54.6885 29.3941 54.4903 29.0122C54.0826 28.2399 53.6797 27.4496 53.1459 26.7568C52.6103 26.0607 51.988 25.4409 51.3604 24.8307C51.152 24.6312 50.9541 24.4234 50.7536 24.215C51.5011 23.987 52.1556 23.4883 52.6932 22.9223C53.0374 22.5532 53.3221 22.1184 53.551 21.6548C53.5536 21.6555 53.5587 21.6569 53.5606 21.6601C53.5734 21.6331 53.5816 21.6022 53.5944 21.5752C53.64 21.477 53.6779 21.3766 53.7184 21.2769C53.7818 21.1226 53.8426 20.9677 53.8939 20.8073C53.9287 20.6979 53.9526 20.5882 53.9804 20.4741C54.0061 20.3677 54.0415 20.2667 54.0588 20.1608C54.0537 20.1595 54.0518 20.1562 54.0441 20.1541C54.2636 18.9338 54.0699 17.6608 53.2811 16.6648L53.2688 16.6698ZM12.091 36.5761C11.8991 35.2759 11.8886 33.947 11.7635 32.6343C11.8216 30.6994 11.7237 28.7503 12.3522 26.8881C12.8676 25.1807 13.3608 23.4121 14.4925 21.9969C15.7298 20.1155 17.4956 18.6381 19.4287 17.493C20.3628 17.0415 21.3506 16.6984 22.3303 16.3338C24.2406 15.572 26.2996 15.3253 28.3148 14.995C30.2339 14.8793 32.1831 15.001 34.0884 15.2352C34.1079 15.3786 34.1299 15.5226 34.1662 15.665C34.3349 16.4036 34.5586 17.1322 34.7579 17.8597C34.7937 17.9521 34.8268 18.0549 34.8574 18.1571C34.4477 18.1633 34.0374 18.1722 33.632 18.2348C33.2072 18.2978 32.7885 18.379 32.367 18.4705C32.1803 18.5089 31.9813 18.5523 31.779 18.5975C31.0075 18.761 30.146 18.9004 29.3081 19.1676C29.2087 19.199 29.1119 19.2311 29.0144 19.2658C28.8327 19.3165 28.6564 19.3881 28.4887 19.4482C27.9831 19.6276 27.4911 19.8384 27.0053 20.0673C26.9279 20.0991 26.8523 20.1341 26.7775 20.1665C26.7397 20.1841 26.7045 20.2022 26.6679 20.2256C26.5546 20.2781 26.4432 20.3339 26.3325 20.3871C25.915 20.5874 25.5245 20.8309 25.1288 21.073C24.7162 21.3271 24.3005 21.5721 23.8815 21.819C23.4423 22.0798 23.0125 22.357 22.6129 22.6754C22.2068 22.9975 21.8299 23.3551 21.451 23.7095C20.7916 24.2981 20.1158 24.8657 19.5739 25.5714C19.2719 25.9684 18.9902 26.3819 18.7014 26.7908C18.4431 27.1581 18.1753 27.5201 17.9099 27.8828C17.3735 28.6093 16.9012 29.3944 16.5092 30.2094C16.3049 30.6326 16.1254 31.0763 15.9685 31.5177C15.8299 31.9115 15.7093 32.3102 15.5732 32.7047C15.3234 33.4418 15.0111 34.1648 14.8319 34.9263C14.7427 35.3002 14.6638 35.6769 14.6139 36.0586C14.6047 36.1445 14.5954 36.2305 14.5843 36.3131C13.7921 36.2556 12.8252 36.4385 12.1003 36.6753C12.0976 36.6441 12.0923 36.6123 12.0896 36.5812L12.091 36.5761ZM15.4109 46.4777C15.5493 46.9181 15.6888 47.3644 15.8642 47.7899C16.0259 48.1841 16.2073 48.567 16.4009 48.9448C16.5977 49.3319 16.8271 49.7 17.0459 50.0763C17.2296 50.3991 17.4107 50.7211 17.5878 51.0476C17.8162 51.4707 18.0584 51.8837 18.3357 52.2785L18.3477 52.2955C17.9988 52.7131 17.6458 53.1766 17.2075 53.4957C16.8356 53.001 16.4651 52.5011 16.0828 52.0146C15.0171 50.2621 14.1441 48.3457 13.3842 46.4292C12.8704 44.8493 12.6447 43.192 12.3261 41.5623C12.1649 40.6516 10.8345 40.8642 10.9461 41.7644C11.5102 44.7307 12.0011 47.8157 13.5442 50.4614C14.2282 51.6117 14.9233 52.7621 15.6125 53.9137C12.8433 53.8486 11.2134 50.848 10.3998 48.453C9.63242 46.7804 9.5388 44.9181 9.4818 43.1043C9.42703 41.6833 9.97825 40.3668 10.8583 39.2737C11.6278 38.3665 12.8799 37.829 14.0799 37.7223C14.1902 37.7325 14.3051 37.7357 14.4173 37.7492C14.3511 38.3254 14.2952 38.9044 14.3103 39.4859C14.3301 40.3173 14.4386 41.1365 14.5069 41.9615C14.5634 42.6867 14.6186 43.4888 14.7857 44.2851C14.942 45.0287 15.1807 45.7529 15.4084 46.477L15.4109 46.4777ZM34.7041 62.2838C34.464 63.8384 34.2087 65.4083 33.5475 66.8473C33.3621 67.4055 32.9447 68.1915 32.6773 67.1529C32.4636 65.9546 32.5268 64.7311 32.6544 63.5248C32.6768 62.6799 32.8221 61.8596 33.0068 61.0471C33.1241 61.062 33.2405 61.0904 33.3585 61.1027C33.8234 61.1472 34.2935 61.193 34.7607 61.2187C34.7565 61.574 34.7445 61.9272 34.7048 62.2812L34.7041 62.2838ZM59.6336 46.0274C60.1192 46.2211 60.644 46.4639 60.8904 46.9637C61.3784 48.0642 59.2513 47.5053 58.7167 47.4946C57.8268 47.4109 56.9259 47.2137 56.032 46.9908C56.2753 46.3294 56.5231 45.6719 56.7286 44.9976C56.827 45.0212 56.9224 45.0357 57.0208 45.0593C57.9175 45.3134 58.7755 45.6704 59.6342 46.0248L59.6336 46.0274ZM53.5917 30.2467C53.8879 30.8593 54.1379 31.4899 54.3632 32.1304C54.6003 32.799 54.8632 33.4635 55.1055 34.1334C55.2474 34.5499 55.3661 34.9713 55.4626 35.4032C55.5525 35.8804 55.6132 36.3636 55.6791 36.8481C55.7409 37.3067 55.7994 37.7672 55.8404 38.2313C55.9048 39.1741 55.8896 40.1259 55.846 41.0701C55.8206 41.4943 55.7701 41.9808 55.6875 42.4643C55.5651 43.0752 55.4042 43.6758 55.2818 44.2867C55.1565 44.919 55.0312 45.5512 54.8461 46.1702C54.7184 46.5642 54.5665 46.9462 54.3991 47.324C54.2496 47.6349 54.1105 47.9484 53.9463 48.2525C53.7733 48.5792 53.585 48.9017 53.405 49.2236C53.0654 49.8427 52.7547 50.4777 52.3819 51.0768C52.1326 51.452 51.8616 51.8049 51.5733 52.1504C51.1376 52.6552 50.7019 53.1601 50.2261 53.6293C49.7608 54.0904 49.2992 54.5579 48.8161 55.0031C48.0961 55.6224 47.2994 56.1577 46.5149 56.6989C46.1189 56.963 45.7078 57.201 45.2855 57.4193C44.8431 57.6406 44.3983 57.8502 43.9521 58.0649C43.5215 58.2728 43.0892 58.4664 42.6433 58.6287C42.2302 58.7611 41.811 58.8753 41.3881 58.972C40.9177 59.0614 40.4485 59.1457 39.9873 59.2625C39.5617 59.3694 39.1417 59.4862 38.7138 59.5815C38.6846 59.5875 38.6554 59.5935 38.6256 59.6021C38.3021 59.6674 37.9413 59.7282 37.5724 59.7675C37.0564 59.8005 36.5477 59.7857 36.0303 59.7825C35.5686 59.7776 35.1036 59.7745 34.642 59.7586C34.1942 59.7325 33.7468 59.6845 33.3021 59.6261C32.8838 59.572 32.4683 59.5077 32.0568 59.4388C31.993 59.43 31.9324 59.4193 31.8687 59.4105C31.5036 59.3431 31.1452 59.2609 30.791 59.1632C30.1288 58.9499 29.4903 58.6683 28.8269 58.4491C28.1057 58.2089 27.3917 57.9623 26.6989 57.6468C26.4127 57.5011 26.1351 57.3438 25.8603 57.1762C25.5742 56.9891 25.2906 56.8026 25.0171 56.5994C24.702 56.3658 24.3937 56.1174 24.0754 55.8857C23.5632 55.5137 23.0357 55.1679 22.54 54.7753C21.8979 54.2193 21.3321 53.5842 20.7565 52.9548C20.3361 52.4664 19.9595 51.9483 19.5829 51.4302C19.2826 51.0182 18.9776 50.6133 18.6832 50.2001C18.517 49.9456 18.3633 49.6862 18.2181 49.4152C17.9401 48.8379 17.6921 48.241 17.4492 47.6455C17.2318 47.1092 17.0137 46.5756 16.8152 46.0307C16.6127 45.4183 16.4678 44.7966 16.3283 44.1652C16.2102 43.639 16.0946 43.1135 15.9816 42.5887C15.9104 42.2271 15.8534 41.8637 15.8132 41.4993C15.7806 40.9214 15.7959 40.3398 15.8131 39.7615C15.8304 39.2854 15.8477 38.8093 15.8683 38.3314C15.8939 37.8244 15.9361 37.3273 16.0203 36.8277C16.1382 36.2129 16.269 35.6014 16.3946 34.9886C16.5112 34.4093 16.6265 33.8351 16.7952 33.267C16.8957 32.9845 17.0058 32.7074 17.1269 32.4304C17.461 31.7187 17.8116 31.017 18.1718 30.3206C18.5202 29.6376 18.8871 28.9679 19.2828 28.3142C19.4646 28.0369 19.6598 27.7714 19.8671 27.512C20.2803 27.0398 20.7272 26.596 21.1531 26.1382C21.5769 25.6882 21.981 25.219 22.4308 24.7953C22.8661 24.4257 23.3267 24.085 23.7759 23.7357C24.2067 23.4035 24.6274 23.0577 25.0676 22.7419C25.3702 22.5384 25.6815 22.3538 26.0029 22.183C26.4238 21.9698 26.8448 21.7566 27.2759 21.5571C27.3006 21.5472 27.3286 21.5353 27.354 21.5228C27.3827 21.5084 27.412 21.4914 27.4433 21.4777C27.8424 21.2945 28.2495 21.1329 28.656 20.9738C28.8458 20.9031 29.0331 20.8317 29.2236 20.7585C29.5395 20.6497 29.8539 20.5461 30.1728 20.4464C30.7202 20.2754 31.264 20.0978 31.8228 19.9768C32.2513 19.89 32.7385 19.8409 33.2302 19.7959C33.8679 19.7512 34.5042 19.7118 35.1418 19.6671C35.6482 19.6288 36.1517 19.6117 36.6572 19.6284C37.0947 19.6517 37.5307 19.6911 37.9646 19.7383C38.452 19.7916 38.9412 19.8481 39.4262 19.931C40.3964 20.1164 41.3582 20.3741 42.3033 20.6633C42.8306 20.835 43.3406 21.0407 43.8469 21.2703C44.3825 21.5243 44.9041 21.7995 45.4202 22.0952C45.9422 22.3898 46.4676 22.6715 46.9789 22.9853C47.4655 23.3091 47.9197 23.6711 48.3745 24.0416C48.7814 24.3745 49.2003 24.6939 49.6105 25.0248C49.839 25.2214 50.057 25.4263 50.2657 25.6452C50.7611 26.2034 51.2009 26.8047 51.6367 27.4105C52.0788 28.0235 52.5485 28.6162 52.9867 29.2337C53.2051 29.5602 53.4098 29.8969 53.595 30.2449L53.5917 30.2467ZM52.6279 19.3906C51.3652 18.7539 50.1042 18.1315 48.8424 17.4398C47.6954 16.8755 46.4773 16.4939 45.2877 16.037C44.5785 15.7419 43.8964 15.3658 43.1541 15.1531C42.4661 14.9742 41.7782 14.7844 41.1047 14.5514C40.2251 14.3158 39.3258 14.2157 38.4562 13.9329C37.2643 13.608 37.0344 15.3505 38.2601 15.4054C40.3941 15.7838 42.4043 16.6347 44.4911 17.1994C46.2914 17.8668 47.8595 18.7318 49.6982 19.451C50.5453 19.9211 51.381 20.413 52.218 20.8998C51.752 21.8469 50.9982 22.7058 49.9696 22.944C49.8212 22.9733 49.714 23.0441 49.6253 23.128C49.6101 23.1129 49.5974 23.0985 49.5815 23.0859C48.88 22.4946 48.1045 21.9939 47.3521 21.4691C46.9385 21.1815 46.5078 20.9169 46.0596 20.6863C45.6595 20.4823 45.2512 20.2984 44.8441 20.1202C44.0127 19.7565 43.1546 19.441 42.2967 19.1448C41.4923 18.8657 40.6687 18.6782 39.8323 18.5286C39.0989 18.3957 38.3718 18.2699 37.6305 18.2177C37.2409 18.1907 36.8494 18.1908 36.4589 18.1773C36.4035 18.0547 36.3398 17.9326 36.2914 17.8147C35.9948 17.0805 35.7184 16.3323 35.625 15.5392C35.5848 14.7632 35.5132 13.8682 35.973 13.2013C36.5496 12.5822 37.3153 12.0801 38.1617 11.956C40.1137 11.8823 42.1196 12.2347 43.944 12.9252C45.9516 13.7754 48.0631 14.3715 49.9151 15.5557C50.6356 15.9836 51.3614 16.4433 51.8531 17.1386C52.3153 17.7901 52.6276 18.5894 52.6279 19.3906Z" fill="#111827"/>
</g>
<defs>
<clipPath id="clip0_1_37599">
<rect width="65.4766" height="61.9845" fill="white" transform="translate(-2.42285 63.2456) rotate(-75)"/>
</clipPath>
</defs>
</svg>
